<svg width="121" height="75" viewBox="0 0 121 75" fill="none" xmlns="http://www.w3.org/2000/svg">
<path d="M85.4163 28.5796L43.6812 46.7377C42.4165 47.1282 41.2126 46.9696 40.0695 46.2618C38.9264 45.554 38.1846 44.5412 37.8441 43.2232C37.5036 41.9053 37.6617 40.6484 38.3183 39.4525C38.975 38.2566 39.9357 37.4634 41.2004 37.0729L82.9355 18.9147C84.2489 18.5731 85.4649 18.7439 86.5837 19.4273C87.7025 20.1106 88.4443 21.1235 88.8091 22.4658C89.1739 23.8082 89.0158 25.0773 88.3348 26.2732C87.6539 27.4691 86.681 28.2379 85.4163 28.5796ZM80.7466 14.5216L39.0115 32.6798C37.7468 33.0703 36.5429 32.9117 35.3998 32.2039C34.2567 31.4961 33.5149 30.4832 33.1744 29.1653C32.8339 27.8474 32.992 26.5905 33.6487 25.3946C34.3053 24.1987 35.266 23.4299 36.5307 23.0882L78.2659 4.85682C79.5792 4.51513 80.7953 4.68597 81.9141 5.36935C83.0328 6.05272 83.7746 7.06557 84.1394 8.40791C84.5043 9.75024 84.3462 11.0194 83.6652 12.2153C82.9842 13.4112 82.0113 14.18 80.7466 14.5216ZM55.0635 9.83566L43.6812 13.9359C42.4165 14.3264 41.2126 14.18 40.0695 13.4966C38.9264 12.8132 38.1846 11.8004 37.8441 10.458C37.5036 9.11568 37.6617 7.84657 38.3183 6.65067C38.975 5.45477 39.9357 4.68597 41.2004 4.34429L52.6557 0.170843C53.9204 -0.170843 55.1243 0 56.2674 0.683371C57.4105 1.36674 58.1523 2.3796 58.4928 3.72193C58.8333 5.06427 58.6752 6.33339 58.0185 7.52929C57.3618 8.72519 56.3768 9.49398 55.0635 9.83566ZM53.5312 47.3967C54.0177 46.9574 54.577 46.6401 55.2094 46.4448L78.2659 37.6586C79.5792 37.317 80.7953 37.4878 81.9141 38.1712C83.0328 38.8545 83.7746 39.8674 84.1394 41.2097C84.5043 42.5521 84.3462 43.8212 83.6652 45.0171C82.9842 46.213 82.0113 46.9818 80.7466 47.3235L61.0465 54.865C60.9978 55.4995 60.9735 55.9632 60.9735 56.2561H65.6432C66.9565 56.2561 68.0631 56.7198 68.963 57.6472C69.8629 58.5747 70.3129 59.6852 70.3129 60.9787C70.3129 62.2722 69.8629 63.3705 68.963 64.2735C68.0631 65.1765 66.9565 65.6281 65.6432 65.6281H56.3038C56.012 65.6281 55.7201 65.6036 55.4283 65.5548C53.0448 65.3108 51.0383 64.2979 49.4088 62.5163C47.7793 60.7346 46.9645 58.6479 46.9645 56.2561C46.9645 54.206 47.5725 52.3633 48.7886 50.7281C50.0047 49.0929 51.5855 47.9824 53.5312 47.3967ZM60.9735 75C58.3955 75 56.1944 74.5485 54.3703 73.6455C52.5462 72.7424 51.6342 71.632 51.6342 70.314H70.3129C70.3129 71.632 69.4008 72.7424 67.5767 73.6455C65.7526 74.5485 63.5516 75 60.9735 75Z" fill="#C7EBFF" fill-opacity="0.35"/>
<path d="M25.9219 43.3867L29.9414 22.1406H36.0732L29.4492 52H23.2559L18.3955 32.0254L13.5352 52H7.3418L0.717773 22.1406H6.84961L10.8896 43.3457L15.8115 22.1406H21.0205L25.9219 43.3867ZM45.958 52H39.8057V22.1406H45.958V52ZM51.6797 52V22.1406H60.8672C63.4922 22.1406 65.8369 22.7354 67.9014 23.9248C69.9795 25.1006 71.5996 26.7822 72.7617 28.9697C73.9238 31.1436 74.5049 33.6182 74.5049 36.3936V37.7676C74.5049 40.543 73.9307 43.0107 72.7822 45.1709C71.6475 47.3311 70.041 49.0059 67.9629 50.1953C65.8848 51.3848 63.54 51.9863 60.9287 52H51.6797ZM57.832 27.124V47.0576H60.8057C63.2119 47.0576 65.0508 46.2715 66.3223 44.6992C67.5938 43.127 68.2432 40.8779 68.2705 37.9521V36.373C68.2705 33.3379 67.6416 31.041 66.3838 29.4824C65.126 27.9102 63.2871 27.124 60.8672 27.124H57.832ZM88.8193 52.4102C85.5654 52.4102 82.9131 51.4121 80.8623 49.416C78.8252 47.4199 77.8066 44.7607 77.8066 41.4385V40.8643C77.8066 38.6357 78.2373 36.6465 79.0986 34.8965C79.96 33.1328 81.1768 31.7793 82.749 30.8359C84.335 29.8789 86.1396 29.4004 88.1631 29.4004C91.1982 29.4004 93.584 30.3574 95.3203 32.2715C97.0703 34.1855 97.9453 36.8994 97.9453 40.4131V42.833H83.8154C84.0068 44.2822 84.5811 45.4443 85.5381 46.3193C86.5088 47.1943 87.7324 47.6318 89.209 47.6318C91.4922 47.6318 93.2764 46.8047 94.5615 45.1504L97.4736 48.4111C96.585 49.6689 95.3818 50.6533 93.8643 51.3643C92.3467 52.0615 90.665 52.4102 88.8193 52.4102ZM88.1426 34.1992C86.9668 34.1992 86.0098 34.5957 85.2715 35.3887C84.5469 36.1816 84.082 37.3164 83.877 38.793H92.1211V38.3213C92.0938 37.0088 91.7383 35.9971 91.0547 35.2861C90.3711 34.5615 89.4004 34.1992 88.1426 34.1992ZM109.348 44.7607L113.47 29.8105H119.663L112.178 52H106.518L99.0322 29.8105H105.226L109.348 44.7607Z" fill="#22ABF8"/>
</svg>
