<svg width="130" height="106" viewBox="0 0 130 106" fill="none" xmlns="http://www.w3.org/2000/svg">
<path d="M89.4163 28.5796L47.6812 46.7377C46.4165 47.1282 45.2126 46.9696 44.0695 46.2618C42.9264 45.554 42.1846 44.5412 41.8441 43.2232C41.5036 41.9053 41.6617 40.6484 42.3183 39.4525C42.975 38.2566 43.9357 37.4634 45.2004 37.0729L86.9355 18.9147C88.2489 18.5731 89.4649 18.7439 90.5837 19.4273C91.7025 20.1106 92.4443 21.1235 92.8091 22.4658C93.1739 23.8082 93.0158 25.0773 92.3348 26.2732C91.6539 27.4691 90.681 28.2379 89.4163 28.5796ZM84.7466 14.5216L43.0115 32.6798C41.7468 33.0703 40.5429 32.9117 39.3998 32.2039C38.2567 31.4961 37.5149 30.4832 37.1744 29.1653C36.8339 27.8474 36.992 26.5905 37.6487 25.3946C38.3053 24.1987 39.266 23.4299 40.5307 23.0882L82.2659 4.85682C83.5792 4.51513 84.7953 4.68597 85.9141 5.36935C87.0328 6.05272 87.7746 7.06557 88.1394 8.40791C88.5043 9.75024 88.3462 11.0194 87.6652 12.2153C86.9842 13.4112 86.0113 14.18 84.7466 14.5216ZM59.0635 9.83566L47.6812 13.9359C46.4165 14.3264 45.2126 14.18 44.0695 13.4966C42.9264 12.8132 42.1846 11.8004 41.8441 10.458C41.5036 9.11568 41.6617 7.84657 42.3183 6.65067C42.975 5.45477 43.9357 4.68597 45.2004 4.34429L56.6557 0.170843C57.9204 -0.170843 59.1243 0 60.2674 0.683371C61.4105 1.36674 62.1523 2.3796 62.4928 3.72193C62.8333 5.06427 62.6752 6.33339 62.0185 7.52929C61.3618 8.72519 60.3768 9.49398 59.0635 9.83566ZM57.5312 47.3967C58.0177 46.9574 58.577 46.6401 59.2094 46.4448L82.2659 37.6586C83.5792 37.317 84.7953 37.4878 85.9141 38.1712C87.0328 38.8545 87.7746 39.8674 88.1394 41.2097C88.5043 42.5521 88.3462 43.8212 87.6652 45.0171C86.9842 46.213 86.0113 46.9818 84.7466 47.3235L65.0465 54.865C64.9978 55.4995 64.9735 55.9632 64.9735 56.2561H69.6432C70.9565 56.2561 72.0631 56.7198 72.963 57.6472C73.8629 58.5747 74.3129 59.6852 74.3129 60.9787C74.3129 62.2722 73.8629 63.3705 72.963 64.2735C72.0631 65.1765 70.9565 65.6281 69.6432 65.6281H60.3038C60.012 65.6281 59.7201 65.6036 59.4283 65.5548C57.0448 65.3108 55.0383 64.2979 53.4088 62.5163C51.7793 60.7346 50.9645 58.6479 50.9645 56.2561C50.9645 54.206 51.5725 52.3633 52.7886 50.7281C54.0047 49.0929 55.5855 47.9824 57.5312 47.3967ZM64.9735 75C62.3955 75 60.1944 74.5485 58.3703 73.6455C56.5462 72.7424 55.6342 71.632 55.6342 70.314H74.3129C74.3129 71.632 73.4008 72.7424 71.5767 73.6455C69.7526 74.5485 67.5516 75 64.9735 75Z" fill="#C7EBFF" fill-opacity="0.35"/>
<path d="M29.9219 43.3867L33.9414 22.1406H40.0732L33.4492 52H27.2559L22.3955 32.0254L17.5352 52H11.3418L4.71777 22.1406H10.8496L14.8896 43.3457L19.8115 22.1406H25.0205L29.9219 43.3867ZM49.958 52H43.8057V22.1406H49.958V52ZM55.6797 52V22.1406H64.8672C67.4922 22.1406 69.8369 22.7354 71.9014 23.9248C73.9795 25.1006 75.5996 26.7822 76.7617 28.9697C77.9238 31.1436 78.5049 33.6182 78.5049 36.3936V37.7676C78.5049 40.543 77.9307 43.0107 76.7822 45.1709C75.6475 47.3311 74.041 49.0059 71.9629 50.1953C69.8848 51.3848 67.54 51.9863 64.9287 52H55.6797ZM61.832 27.124V47.0576H64.8057C67.2119 47.0576 69.0508 46.2715 70.3223 44.6992C71.5938 43.127 72.2432 40.8779 72.2705 37.9521V36.373C72.2705 33.3379 71.6416 31.041 70.3838 29.4824C69.126 27.9102 67.2871 27.124 64.8672 27.124H61.832ZM92.8193 52.4102C89.5654 52.4102 86.9131 51.4121 84.8623 49.416C82.8252 47.4199 81.8066 44.7607 81.8066 41.4385V40.8643C81.8066 38.6357 82.2373 36.6465 83.0986 34.8965C83.96 33.1328 85.1768 31.7793 86.749 30.8359C88.335 29.8789 90.1396 29.4004 92.1631 29.4004C95.1982 29.4004 97.584 30.3574 99.3203 32.2715C101.07 34.1855 101.945 36.8994 101.945 40.4131V42.833H87.8154C88.0068 44.2822 88.5811 45.4443 89.5381 46.3193C90.5088 47.1943 91.7324 47.6318 93.209 47.6318C95.4922 47.6318 97.2764 46.8047 98.5615 45.1504L101.474 48.4111C100.585 49.6689 99.3818 50.6533 97.8643 51.3643C96.3467 52.0615 94.665 52.4102 92.8193 52.4102ZM92.1426 34.1992C90.9668 34.1992 90.0098 34.5957 89.2715 35.3887C88.5469 36.1816 88.082 37.3164 87.877 38.793H96.1211V38.3213C96.0938 37.0088 95.7383 35.9971 95.0547 35.2861C94.3711 34.5615 93.4004 34.1992 92.1426 34.1992ZM113.348 44.7607L117.47 29.8105H123.663L116.178 52H110.518L103.032 29.8105H109.226L113.348 44.7607Z" fill="#22ABF8"/>
<path d="M6.916 100.012H2.842L2.142 102H0.476L3.962 92.256H5.81L9.296 102H7.616L6.916 100.012ZM6.468 98.71L4.886 94.188L3.29 98.71H6.468ZM17.6264 92.27C18.6624 92.27 19.5678 92.4707 20.3424 92.872C21.1264 93.264 21.7284 93.8333 22.1484 94.58C22.5778 95.3173 22.7924 96.1807 22.7924 97.17C22.7924 98.1593 22.5778 99.018 22.1484 99.746C21.7284 100.474 21.1264 101.034 20.3424 101.426C19.5678 101.809 18.6624 102 17.6264 102H14.4484V92.27H17.6264ZM17.6264 100.698C18.7651 100.698 19.6378 100.39 20.2444 99.774C20.8511 99.158 21.1544 98.29 21.1544 97.17C21.1544 96.0407 20.8511 95.1587 20.2444 94.524C19.6378 93.8893 18.7651 93.572 17.6264 93.572H16.0444V100.698H17.6264ZM31.4442 97.954C31.4442 98.2433 31.4256 98.5047 31.3882 98.738H25.4942C25.5409 99.354 25.7696 99.8487 26.1802 100.222C26.5909 100.595 27.0949 100.782 27.6922 100.782C28.5509 100.782 29.1576 100.423 29.5122 99.704H31.2342C31.0009 100.413 30.5762 100.997 29.9602 101.454C29.3536 101.902 28.5976 102.126 27.6922 102.126C26.9549 102.126 26.2922 101.963 25.7042 101.636C25.1256 101.3 24.6682 100.833 24.3322 100.236C24.0056 99.6293 23.8422 98.9293 23.8422 98.136C23.8422 97.3427 24.0009 96.6473 24.3182 96.05C24.6449 95.4433 25.0976 94.9767 25.6762 94.65C26.2642 94.3233 26.9362 94.16 27.6922 94.16C28.4202 94.16 29.0689 94.3187 29.6382 94.636C30.2076 94.9533 30.6509 95.4013 30.9682 95.98C31.2856 96.5493 31.4442 97.2073 31.4442 97.954ZM29.7782 97.45C29.7689 96.862 29.5589 96.3907 29.1482 96.036C28.7376 95.6813 28.2289 95.504 27.6222 95.504C27.0716 95.504 26.6002 95.6813 26.2082 96.036C25.8162 96.3813 25.5829 96.8527 25.5082 97.45H29.7782ZM35.9968 100.572L38.1808 94.286H39.8748L36.9348 102H35.0308L32.1048 94.286H33.8128L35.9968 100.572ZM48.1513 97.954C48.1513 98.2433 48.1326 98.5047 48.0953 98.738H42.2013C42.2479 99.354 42.4766 99.8487 42.8873 100.222C43.2979 100.595 43.8019 100.782 44.3993 100.782C45.2579 100.782 45.8646 100.423 46.2193 99.704H47.9412C47.7079 100.413 47.2833 100.997 46.6673 101.454C46.0606 101.902 45.3046 102.126 44.3993 102.126C43.6619 102.126 42.9993 101.963 42.4113 101.636C41.8326 101.3 41.3753 100.833 41.0393 100.236C40.7126 99.6293 40.5493 98.9293 40.5493 98.136C40.5493 97.3427 40.7079 96.6473 41.0253 96.05C41.3519 95.4433 41.8046 94.9767 42.3833 94.65C42.9713 94.3233 43.6433 94.16 44.3993 94.16C45.1273 94.16 45.7759 94.3187 46.3453 94.636C46.9146 94.9533 47.3579 95.4013 47.6753 95.98C47.9926 96.5493 48.1513 97.2073 48.1513 97.954ZM46.4853 97.45C46.4759 96.862 46.2659 96.3907 45.8553 96.036C45.4446 95.6813 44.9359 95.504 44.3293 95.504C43.7786 95.504 43.3073 95.6813 42.9153 96.036C42.5233 96.3813 42.2899 96.8527 42.2153 97.45H46.4853ZM51.3179 91.64V102H49.7219V91.64H51.3179ZM56.7593 102.126C56.0313 102.126 55.3733 101.963 54.7853 101.636C54.1973 101.3 53.7353 100.833 53.3993 100.236C53.0633 99.6293 52.8953 98.9293 52.8953 98.136C52.8953 97.352 53.0679 96.6567 53.4133 96.05C53.7586 95.4433 54.2299 94.9767 54.8273 94.65C55.4246 94.3233 56.0919 94.16 56.8293 94.16C57.5666 94.16 58.2339 94.3233 58.8313 94.65C59.4286 94.9767 59.8999 95.4433 60.2453 96.05C60.5906 96.6567 60.7633 97.352 60.7633 98.136C60.7633 98.92 60.5859 99.6153 60.2313 100.222C59.8766 100.829 59.3913 101.3 58.7753 101.636C58.1686 101.963 57.4966 102.126 56.7593 102.126ZM56.7593 100.74C57.1699 100.74 57.5526 100.642 57.9073 100.446C58.2713 100.25 58.5653 99.956 58.7893 99.564C59.0133 99.172 59.1253 98.696 59.1253 98.136C59.1253 97.576 59.0179 97.1047 58.8033 96.722C58.5886 96.33 58.3039 96.036 57.9493 95.84C57.5946 95.644 57.2119 95.546 56.8013 95.546C56.3906 95.546 56.0079 95.644 55.6533 95.84C55.3079 96.036 55.0326 96.33 54.8273 96.722C54.6219 97.1047 54.5193 97.576 54.5193 98.136C54.5193 98.9667 54.7293 99.6107 55.1493 100.068C55.5786 100.516 56.1153 100.74 56.7593 100.74ZM63.937 95.42C64.2077 95.0653 64.5763 94.7667 65.043 94.524C65.5097 94.2813 66.037 94.16 66.625 94.16C67.297 94.16 67.9083 94.328 68.459 94.664C69.019 94.9907 69.4577 95.4527 69.775 96.05C70.0923 96.6473 70.251 97.3333 70.251 98.108C70.251 98.8827 70.0923 99.578 69.775 100.194C69.4577 100.801 69.019 101.277 68.459 101.622C67.9083 101.958 67.297 102.126 66.625 102.126C66.037 102.126 65.5143 102.009 65.057 101.776C64.5997 101.533 64.2263 101.235 63.937 100.88V105.668H62.341V94.286H63.937V95.42ZM68.627 98.108C68.627 97.576 68.515 97.1187 68.291 96.736C68.0763 96.344 67.787 96.05 67.423 95.854C67.0683 95.6487 66.6857 95.546 66.275 95.546C65.8737 95.546 65.491 95.6487 65.127 95.854C64.7723 96.0593 64.483 96.358 64.259 96.75C64.0443 97.142 63.937 97.604 63.937 98.136C63.937 98.668 64.0443 99.1347 64.259 99.536C64.483 99.928 64.7723 100.227 65.127 100.432C65.491 100.637 65.8737 100.74 66.275 100.74C66.6857 100.74 67.0683 100.637 67.423 100.432C67.787 100.217 68.0763 99.9093 68.291 99.508C68.515 99.1067 68.627 98.64 68.627 98.108ZM78.8993 97.954C78.8993 98.2433 78.8806 98.5047 78.8433 98.738H72.9493C72.996 99.354 73.2246 99.8487 73.6353 100.222C74.046 100.595 74.55 100.782 75.1473 100.782C76.006 100.782 76.6126 100.423 76.9673 99.704H78.6893C78.456 100.413 78.0313 100.997 77.4153 101.454C76.8086 101.902 76.0526 102.126 75.1473 102.126C74.41 102.126 73.7473 101.963 73.1593 101.636C72.5806 101.3 72.1233 100.833 71.7873 100.236C71.4606 99.6293 71.2973 98.9293 71.2973 98.136C71.2973 97.3427 71.456 96.6473 71.7733 96.05C72.1 95.4433 72.5526 94.9767 73.1313 94.65C73.7193 94.3233 74.3913 94.16 75.1473 94.16C75.8753 94.16 76.524 94.3187 77.0933 94.636C77.6626 94.9533 78.106 95.4013 78.4233 95.98C78.7406 96.5493 78.8993 97.2073 78.8993 97.954ZM77.2333 97.45C77.224 96.862 77.014 96.3907 76.6033 96.036C76.1926 95.6813 75.684 95.504 75.0773 95.504C74.5266 95.504 74.0553 95.6813 73.6633 96.036C73.2713 96.3813 73.038 96.8527 72.9633 97.45H77.2333ZM82.0659 95.406C82.2993 95.014 82.6073 94.7107 82.9899 94.496C83.3819 94.272 83.8439 94.16 84.3759 94.16V95.812H83.9699C83.3446 95.812 82.8686 95.9707 82.5419 96.288C82.2246 96.6053 82.0659 97.156 82.0659 97.94V102H80.4699V94.286H82.0659V95.406ZM95.7657 92.27V93.572H93.1757V102H91.5797V93.572H88.9757V92.27H95.7657ZM104.452 97.954C104.452 98.2433 104.433 98.5047 104.396 98.738H98.502C98.5487 99.354 98.7774 99.8487 99.188 100.222C99.5987 100.595 100.103 100.782 100.7 100.782C101.559 100.782 102.165 100.423 102.52 99.704H104.242C104.009 100.413 103.584 100.997 102.968 101.454C102.361 101.902 101.605 102.126 100.7 102.126C99.9627 102.126 99.3 101.963 98.712 101.636C98.1334 101.3 97.676 100.833 97.34 100.236C97.0134 99.6293 96.85 98.9293 96.85 98.136C96.85 97.3427 97.0087 96.6473 97.326 96.05C97.6527 95.4433 98.1054 94.9767 98.684 94.65C99.272 94.3233 99.944 94.16 100.7 94.16C101.428 94.16 102.077 94.3187 102.646 94.636C103.215 94.9533 103.659 95.4013 103.976 95.98C104.293 96.5493 104.452 97.2073 104.452 97.954ZM102.786 97.45C102.777 96.862 102.567 96.3907 102.156 96.036C101.745 95.6813 101.237 95.504 100.63 95.504C100.079 95.504 99.608 95.6813 99.216 96.036C98.824 96.3813 98.5907 96.8527 98.516 97.45H102.786ZM105.491 98.108C105.491 97.3333 105.649 96.6473 105.967 96.05C106.293 95.4527 106.732 94.9907 107.283 94.664C107.843 94.328 108.459 94.16 109.131 94.16C109.737 94.16 110.265 94.2813 110.713 94.524C111.17 94.7573 111.534 95.0513 111.805 95.406V94.286H113.415V102H111.805V100.852C111.534 101.216 111.165 101.519 110.699 101.762C110.232 102.005 109.7 102.126 109.103 102.126C108.44 102.126 107.833 101.958 107.283 101.622C106.732 101.277 106.293 100.801 105.967 100.194C105.649 99.578 105.491 98.8827 105.491 98.108ZM111.805 98.136C111.805 97.604 111.693 97.142 111.469 96.75C111.254 96.358 110.969 96.0593 110.615 95.854C110.26 95.6487 109.877 95.546 109.467 95.546C109.056 95.546 108.673 95.6487 108.319 95.854C107.964 96.05 107.675 96.344 107.451 96.736C107.236 97.1187 107.129 97.576 107.129 98.108C107.129 98.64 107.236 99.1067 107.451 99.508C107.675 99.9093 107.964 100.217 108.319 100.432C108.683 100.637 109.065 100.74 109.467 100.74C109.877 100.74 110.26 100.637 110.615 100.432C110.969 100.227 111.254 99.928 111.469 99.536C111.693 99.1347 111.805 98.668 111.805 98.136ZM124.849 94.16C125.456 94.16 125.997 94.286 126.473 94.538C126.958 94.79 127.336 95.1633 127.607 95.658C127.887 96.1527 128.027 96.75 128.027 97.45V102H126.445V97.688C126.445 96.9973 126.272 96.47 125.927 96.106C125.582 95.7327 125.11 95.546 124.513 95.546C123.916 95.546 123.44 95.7327 123.085 96.106C122.74 96.47 122.567 96.9973 122.567 97.688V102H120.985V97.688C120.985 96.9973 120.812 96.47 120.467 96.106C120.122 95.7327 119.65 95.546 119.053 95.546C118.456 95.546 117.98 95.7327 117.625 96.106C117.28 96.47 117.107 96.9973 117.107 97.688V102H115.511V94.286H117.107V95.168C117.368 94.8507 117.7 94.6033 118.101 94.426C118.502 94.2487 118.932 94.16 119.389 94.16C120.005 94.16 120.556 94.2907 121.041 94.552C121.526 94.8133 121.9 95.1913 122.161 95.686C122.394 95.2193 122.758 94.8507 123.253 94.58C123.748 94.3 124.28 94.16 124.849 94.16Z" fill="#22ABF8"/>
</svg>
