<svg width="690" height="555" viewBox="0 0 690 555" fill="none" xmlns="http://www.w3.org/2000/svg">
<rect width="690" height="555" fill="black"/>
<path d="M510 277C510 185.321 436.127 111 345 111C253.873 111 180 185.321 180 277C180 368.679 253.873 443 345 443C436.127 443 510 368.679 510 277Z" fill="#06BDF3"/>
<path d="M326.953 168.063C326.953 164.472 328.012 160.961 329.995 157.975C331.978 154.99 334.796 152.663 338.094 151.288C341.391 149.914 345.02 149.555 348.521 150.255C352.022 150.956 355.237 152.685 357.761 155.224C360.285 157.763 362.004 160.998 362.7 164.52C363.396 168.042 363.039 171.693 361.673 175.011C360.307 178.328 357.994 181.164 355.026 183.159C352.059 185.154 348.569 186.219 345 186.219C340.214 186.219 335.623 184.306 332.239 180.901C328.854 177.496 326.953 172.878 326.953 168.063V168.063Z" fill="#1D2D3C"/>
<path d="M275.391 204.375C275.391 200.784 276.449 197.274 278.432 194.288C280.415 191.302 283.234 188.975 286.531 187.601C289.829 186.227 293.458 185.867 296.958 186.568C300.459 187.268 303.675 188.997 306.199 191.537C308.722 194.076 310.441 197.311 311.138 200.833C311.834 204.355 311.477 208.005 310.111 211.323C308.745 214.641 306.432 217.476 303.464 219.471C300.496 221.466 297.007 222.531 293.438 222.531C288.651 222.531 284.061 220.618 280.676 217.213C277.292 213.808 275.391 209.19 275.391 204.375V204.375Z" fill="#1D2D3C"/>
<path d="M378.516 204.375C378.516 200.784 379.574 197.274 381.557 194.288C383.54 191.302 386.359 188.975 389.656 187.601C392.954 186.227 396.583 185.867 400.083 186.568C403.584 187.268 406.8 188.997 409.324 191.537C411.847 194.076 413.566 197.311 414.263 200.833C414.959 204.355 414.602 208.005 413.236 211.323C411.87 214.641 409.557 217.476 406.589 219.471C403.621 221.466 400.132 222.531 396.562 222.531C391.776 222.531 387.186 220.618 383.801 217.213C380.417 213.808 378.516 209.19 378.516 204.375V204.375Z" fill="#1D2D3C"/>
<path d="M326.953 240.688C326.953 237.097 328.012 233.586 329.995 230.6C331.978 227.615 334.796 225.288 338.094 223.913C341.391 222.539 345.02 222.18 348.521 222.88C352.022 223.581 355.237 225.31 357.761 227.849C360.285 230.388 362.004 233.623 362.7 237.145C363.396 240.667 363.039 244.318 361.673 247.636C360.307 250.953 357.994 253.789 355.026 255.784C352.059 257.779 348.569 258.844 345 258.844C340.214 258.844 335.623 256.931 332.239 253.526C328.854 250.121 326.953 245.503 326.953 240.688V240.688Z" fill="#1D2D3C"/>
<path d="M226.406 240.688C226.406 237.097 227.465 233.586 229.448 230.6C231.431 227.615 234.249 225.288 237.547 223.913C240.845 222.539 244.473 222.18 247.974 222.88C251.475 223.581 254.69 225.31 257.214 227.849C259.738 230.388 261.457 233.623 262.153 237.145C262.85 240.667 262.492 244.318 261.126 247.636C259.76 250.953 257.447 253.789 254.479 255.784C251.512 257.779 248.022 258.844 244.453 258.844C239.667 258.844 235.077 256.931 231.692 253.526C228.308 250.121 226.406 245.503 226.406 240.688V240.688Z" fill="#1D2D3C"/>
<path d="M328.701 248.469H361.214C361.214 248.469 350.156 262.693 350.156 276.958C350.156 291.224 361.242 305.49 361.242 305.49H328.624C328.624 305.49 339.844 291.266 339.844 277C339.844 262.734 328.701 248.469 328.701 248.469Z" fill="#1D2D3C"/>
<path d="M380.398 212.198H412.91C412.91 212.198 401.853 226.422 401.853 240.687C401.853 254.953 412.939 269.219 412.939 269.219H380.32C380.32 269.219 391.54 254.995 391.54 240.729C391.54 226.463 380.398 212.198 380.398 212.198Z" fill="#1D2D3C"/>
<path d="M429.382 248.469H461.895C461.895 248.469 450.837 262.693 450.837 276.958C450.837 291.224 461.923 305.49 461.923 305.49H429.305C429.305 305.49 440.525 291.266 440.525 277C440.525 262.734 429.382 248.469 429.382 248.469Z" fill="#1D2D3C"/>
<path d="M380.398 284.781H412.91C412.91 284.781 401.853 299.005 401.853 313.271C401.853 327.537 412.939 341.802 412.939 341.802H380.32C380.32 341.802 391.54 327.578 391.54 313.312C391.54 299.047 380.398 284.781 380.398 284.781Z" fill="#1D2D3C"/>
<path d="M328.701 321.094H361.214C361.214 321.094 350.156 335.318 350.156 349.583C350.156 363.849 361.242 378.115 361.242 378.115H328.624C328.624 378.115 339.844 363.891 339.844 349.625C339.844 335.359 328.701 321.094 328.701 321.094Z" fill="#1D2D3C"/>
<path d="M328.768 175.885H361.281C361.281 175.885 350.156 190.109 350.156 204.375C350.156 218.641 361.309 232.906 361.309 232.906H328.691C328.691 232.906 339.844 218.641 339.844 204.375C339.844 190.109 328.768 175.885 328.768 175.885Z" fill="#1D2D3C"/>
<path d="M277.139 212.198H309.651C309.651 212.198 298.527 226.422 298.527 240.687C298.527 254.953 309.68 269.219 309.68 269.219H277.061C277.061 269.219 288.214 254.953 288.214 240.687C288.214 226.422 277.139 212.198 277.139 212.198Z" fill="#1D2D3C"/>
<path d="M277.139 284.781H309.651C309.651 284.781 298.527 299.005 298.527 313.271C298.527 327.537 309.68 341.802 309.68 341.802H277.061C277.061 341.802 288.214 327.537 288.214 313.271C288.214 299.005 277.139 284.781 277.139 284.781Z" fill="#1D2D3C"/>
<path d="M260.623 248.51H228.11C228.11 248.51 239.235 262.734 239.235 277C239.235 291.266 228.082 305.531 228.082 305.531H260.7C260.7 305.531 249.548 291.266 249.548 277C249.548 262.734 260.623 248.51 260.623 248.51Z" fill="#1D2D3C"/>
<path d="M275.391 349.625C275.391 346.034 276.449 342.524 278.432 339.538C280.415 336.552 283.234 334.225 286.531 332.851C289.829 331.477 293.458 331.117 296.958 331.818C300.459 332.518 303.675 334.247 306.199 336.787C308.722 339.326 310.441 342.561 311.138 346.083C311.834 349.605 311.477 353.255 310.111 356.573C308.745 359.891 306.432 362.726 303.464 364.721C300.496 366.716 297.007 367.781 293.438 367.781C288.651 367.781 284.061 365.868 280.676 362.463C277.292 359.058 275.391 354.44 275.391 349.625V349.625Z" fill="#1D2D3C"/>
<path d="M275.391 277C275.391 273.409 276.449 269.899 278.432 266.913C280.415 263.927 283.234 261.6 286.531 260.226C289.829 258.852 293.458 258.492 296.958 259.193C300.459 259.893 303.675 261.622 306.199 264.162C308.722 266.701 310.441 269.936 311.138 273.458C311.834 276.98 311.477 280.63 310.111 283.948C308.745 287.266 306.432 290.101 303.464 292.096C300.496 294.091 297.007 295.156 293.438 295.156C288.651 295.156 284.061 293.243 280.676 289.838C277.292 286.433 275.391 281.815 275.391 277V277Z" fill="#1D2D3C"/>
<path d="M378.516 277C378.516 273.409 379.574 269.899 381.557 266.913C383.54 263.927 386.359 261.6 389.656 260.226C392.954 258.852 396.583 258.492 400.083 259.193C403.584 259.893 406.8 261.622 409.324 264.162C411.847 266.701 413.566 269.936 414.263 273.458C414.959 276.98 414.602 280.63 413.236 283.948C411.87 287.266 409.557 290.101 406.589 292.096C403.621 294.091 400.132 295.156 396.562 295.156C391.776 295.156 387.186 293.243 383.801 289.838C380.417 286.433 378.516 281.815 378.516 277V277Z" fill="#1D2D3C"/>
<path d="M427.5 240.688C427.5 237.097 428.558 233.586 430.541 230.6C432.524 227.615 435.343 225.288 438.641 223.913C441.938 222.539 445.567 222.18 449.068 222.88C452.568 223.581 455.784 225.31 458.308 227.849C460.832 230.388 462.551 233.623 463.247 237.145C463.943 240.667 463.586 244.318 462.22 247.636C460.854 250.953 458.541 253.789 455.573 255.784C452.605 257.779 449.116 258.844 445.547 258.844C440.761 258.844 436.17 256.931 432.786 253.526C429.401 250.121 427.5 245.503 427.5 240.688V240.688Z" fill="#1D2D3C"/>
<path d="M226.406 313.313C226.406 309.722 227.465 306.211 229.448 303.225C231.431 300.24 234.249 297.913 237.547 296.538C240.845 295.164 244.473 294.805 247.974 295.505C251.475 296.206 254.69 297.935 257.214 300.474C259.738 303.013 261.457 306.248 262.153 309.77C262.85 313.292 262.492 316.943 261.126 320.261C259.76 323.578 257.447 326.414 254.479 328.409C251.512 330.404 248.022 331.469 244.453 331.469C239.667 331.469 235.077 329.556 231.692 326.151C228.308 322.746 226.406 318.128 226.406 313.313V313.313Z" fill="#1D2D3C"/>
<path d="M427.5 313.313C427.5 309.722 428.558 306.211 430.541 303.225C432.524 300.24 435.343 297.913 438.641 296.538C441.938 295.164 445.567 294.805 449.068 295.505C452.568 296.206 455.784 297.935 458.308 300.474C460.832 303.013 462.551 306.248 463.247 309.77C463.943 313.292 463.586 316.943 462.22 320.261C460.854 323.578 458.541 326.414 455.573 328.409C452.605 330.404 449.116 331.469 445.547 331.469C440.761 331.469 436.17 329.556 432.786 326.151C429.401 322.746 427.5 318.128 427.5 313.313V313.313Z" fill="#1D2D3C"/>
<path d="M326.953 313.313C326.953 309.722 328.012 306.211 329.995 303.225C331.978 300.24 334.796 297.913 338.094 296.538C341.391 295.164 345.02 294.805 348.521 295.505C352.022 296.206 355.237 297.935 357.761 300.474C360.285 303.013 362.004 306.248 362.7 309.77C363.396 313.292 363.039 316.943 361.673 320.261C360.307 323.578 357.994 326.414 355.026 328.409C352.059 330.404 348.569 331.469 345 331.469C340.214 331.469 335.623 329.556 332.239 326.151C328.854 322.746 326.953 318.128 326.953 313.313V313.313Z" fill="#1D2D3C"/>
<path d="M378.516 349.625C378.516 346.034 379.574 342.524 381.557 339.538C383.54 336.552 386.359 334.225 389.656 332.851C392.954 331.477 396.583 331.117 400.083 331.818C403.584 332.518 406.8 334.247 409.324 336.787C411.847 339.326 413.566 342.561 414.263 346.083C414.959 349.605 414.602 353.255 413.236 356.573C411.87 359.891 409.557 362.726 406.589 364.721C403.621 366.716 400.132 367.781 396.562 367.781C391.776 367.781 387.186 365.868 383.801 362.463C380.417 359.058 378.516 354.44 378.516 349.625V349.625Z" fill="#1D2D3C"/>
<path d="M326.953 385.938C326.953 382.347 328.012 378.836 329.995 375.85C331.978 372.865 334.796 370.538 338.094 369.163C341.391 367.789 345.02 367.43 348.521 368.13C352.022 368.831 355.237 370.56 357.761 373.099C360.285 375.638 362.004 378.873 362.7 382.395C363.396 385.917 363.039 389.568 361.673 392.886C360.307 396.203 357.994 399.039 355.026 401.034C352.059 403.029 348.569 404.094 345 404.094C340.214 404.094 335.623 402.181 332.239 398.776C328.854 395.371 326.953 390.753 326.953 385.938V385.938Z" fill="#1D2D3C"/>
</svg>
