<svg width="416" height="410" viewBox="0 0 416 410" fill="none" xmlns="http://www.w3.org/2000/svg">
<g clip-path="url(#clip0)">
<path d="M415.13 204.584C415.13 91.5953 322.2 0 207.565 0C92.9301 0 0 91.5953 0 204.584C0 317.572 92.9301 409.168 207.565 409.168C322.2 409.168 415.13 317.572 415.13 204.584Z" fill="#06BDF3"/>
<path d="M184.863 70.3257C184.863 65.9 186.194 61.5738 188.689 57.894C191.183 54.2143 194.729 51.3462 198.877 49.6526C203.026 47.959 207.59 47.5159 211.994 48.3793C216.398 49.2427 220.443 51.3738 223.618 54.5032C226.793 57.6326 228.955 61.6197 229.831 65.9603C230.707 70.3008 230.258 74.8 228.54 78.8887C226.821 82.9775 223.911 86.4722 220.178 88.9309C216.445 91.3897 212.055 92.702 207.565 92.702C201.544 92.702 195.77 90.3445 191.512 86.1481C187.255 81.9517 184.863 76.2602 184.863 70.3257V70.3257Z" fill="#1D2D3C"/>
<path d="M119.999 115.078C119.999 110.653 121.33 106.327 123.825 102.647C126.319 98.967 129.865 96.0989 134.013 94.4053C138.162 92.7117 142.726 92.2686 147.13 93.132C151.534 93.9954 155.579 96.1265 158.754 99.2559C161.929 102.385 164.091 106.372 164.967 110.713C165.843 115.054 165.394 119.553 163.675 123.641C161.957 127.73 159.047 131.225 155.314 133.684C151.581 136.142 147.191 137.455 142.701 137.455C136.68 137.455 130.906 135.097 126.648 130.901C122.391 126.704 119.999 121.013 119.999 115.078V115.078Z" fill="#1D2D3C"/>
<path d="M249.727 115.078C249.727 110.653 251.058 106.327 253.553 102.647C256.048 98.967 259.593 96.0989 263.742 94.4053C267.89 92.7117 272.455 92.2686 276.858 93.132C281.262 93.9954 285.307 96.1265 288.482 99.2559C291.657 102.385 293.82 106.372 294.696 110.713C295.572 115.054 295.122 119.553 293.404 123.641C291.685 127.73 288.776 131.225 285.042 133.684C281.309 136.142 276.919 137.455 272.429 137.455C266.408 137.455 260.634 135.097 256.376 130.901C252.119 126.704 249.727 121.013 249.727 115.078V115.078Z" fill="#1D2D3C"/>
<path d="M184.863 159.831C184.863 155.405 186.194 151.079 188.689 147.399C191.183 143.72 194.729 140.852 198.877 139.158C203.026 137.464 207.59 137.021 211.994 137.885C216.398 138.748 220.443 140.879 223.618 144.009C226.793 147.138 228.955 151.125 229.831 155.466C230.707 159.806 230.258 164.305 228.54 168.394C226.821 172.483 223.911 175.978 220.178 178.436C216.445 180.895 212.055 182.207 207.565 182.207C201.544 182.207 195.77 179.85 191.512 175.654C187.255 171.457 184.863 165.766 184.863 159.831V159.831Z" fill="#1D2D3C"/>
<path d="M58.3777 159.831C58.3777 155.405 59.7092 151.079 62.2038 147.399C64.6984 143.72 68.244 140.852 72.3923 139.158C76.5407 137.464 81.1054 137.021 85.5092 137.885C89.9131 138.748 93.9582 140.879 97.1332 144.009C100.308 147.138 102.47 151.125 103.346 155.466C104.222 159.806 103.773 164.305 102.055 168.394C100.336 172.483 97.4264 175.978 93.693 178.436C89.9596 180.895 85.5703 182.207 81.0802 182.207C75.0591 182.207 69.2847 179.85 65.0271 175.654C60.7696 171.457 58.3777 165.766 58.3777 159.831V159.831Z" fill="#1D2D3C"/>
<path d="M187.062 169.421H227.962C227.962 169.421 214.052 186.951 214.052 204.533C214.052 222.114 227.997 239.695 227.997 239.695H186.964C186.964 239.695 201.079 222.165 201.079 204.584C201.079 187.002 187.062 169.421 187.062 169.421Z" fill="#1D2D3C"/>
<path d="M252.094 124.719H292.995C292.995 124.719 279.084 142.25 279.084 159.831C279.084 177.412 293.03 194.994 293.03 194.994H251.997C251.997 194.994 266.112 177.464 266.112 159.882C266.112 142.301 252.094 124.719 252.094 124.719Z" fill="#1D2D3C"/>
<path d="M313.715 169.421H354.615C354.615 169.421 340.705 186.951 340.705 204.533C340.705 222.114 354.651 239.695 354.651 239.695H313.618C313.618 239.695 327.733 222.165 327.733 204.584C327.733 187.002 313.715 169.421 313.715 169.421Z" fill="#1D2D3C"/>
<path d="M252.094 214.174H292.995C292.995 214.174 279.084 231.704 279.084 249.285C279.084 266.867 293.03 284.448 293.03 284.448H251.997C251.997 284.448 266.112 266.918 266.112 249.336C266.112 231.755 252.094 214.174 252.094 214.174Z" fill="#1D2D3C"/>
<path d="M187.062 258.926H227.962C227.962 258.926 214.052 276.457 214.052 294.038C214.052 311.619 227.997 329.201 227.997 329.201H186.964C186.964 329.201 201.079 311.671 201.079 294.089C201.079 276.508 187.062 258.926 187.062 258.926Z" fill="#1D2D3C"/>
<path d="M187.146 79.9667H228.046C228.046 79.9667 214.052 97.4969 214.052 115.078C214.052 132.66 228.082 150.241 228.082 150.241H187.049C187.049 150.241 201.079 132.66 201.079 115.078C201.079 97.4969 187.146 79.9667 187.146 79.9667Z" fill="#1D2D3C"/>
<path d="M122.198 124.719H163.098C163.098 124.719 149.103 142.25 149.103 159.831C149.103 177.412 163.133 194.994 163.133 194.994H122.1C122.1 194.994 136.13 177.412 136.13 159.831C136.13 142.25 122.198 124.719 122.198 124.719Z" fill="#1D2D3C"/>
<path d="M122.198 214.174H163.098C163.098 214.174 149.103 231.704 149.103 249.285C149.103 266.867 163.133 284.448 163.133 284.448H122.1C122.1 284.448 136.13 266.867 136.13 249.285C136.13 231.704 122.198 214.174 122.198 214.174Z" fill="#1D2D3C"/>
<path d="M101.422 169.472H60.5215C60.5215 169.472 74.5159 187.002 74.5159 204.584C74.5159 222.165 60.4858 239.747 60.4858 239.747H101.519C101.519 239.747 87.4887 222.165 87.4887 204.584C87.4887 187.002 101.422 169.472 101.422 169.472Z" fill="#1D2D3C"/>
<path d="M119.999 294.089C119.999 289.664 121.33 285.337 123.825 281.658C126.319 277.978 129.865 275.11 134.013 273.416C138.162 271.722 142.726 271.279 147.13 272.143C151.534 273.006 155.579 275.137 158.754 278.267C161.929 281.396 164.091 285.383 164.967 289.724C165.843 294.064 165.394 298.563 163.675 302.652C161.957 306.741 159.047 310.236 155.314 312.694C151.581 315.153 147.191 316.465 142.701 316.465C136.68 316.465 130.906 314.108 126.648 309.912C122.391 305.715 119.999 300.024 119.999 294.089V294.089Z" fill="#1D2D3C"/>
<path d="M119.999 204.584C119.999 200.158 121.33 195.832 123.825 192.152C126.319 188.472 129.865 185.604 134.013 183.911C138.162 182.217 142.726 181.774 147.13 182.637C151.534 183.501 155.579 185.632 158.754 188.761C161.929 191.891 164.091 195.878 164.967 200.218C165.843 204.559 165.394 209.058 163.675 213.147C161.957 217.236 159.047 220.73 155.314 223.189C151.581 225.648 147.191 226.96 142.701 226.96C136.68 226.96 130.906 224.603 126.648 220.406C122.391 216.21 119.999 210.518 119.999 204.584V204.584Z" fill="#1D2D3C"/>
<path d="M249.727 204.584C249.727 200.158 251.058 195.832 253.553 192.152C256.048 188.472 259.593 185.604 263.742 183.911C267.89 182.217 272.455 181.774 276.858 182.637C281.262 183.501 285.307 185.632 288.482 188.761C291.657 191.891 293.82 195.878 294.696 200.218C295.572 204.559 295.122 209.058 293.404 213.147C291.685 217.236 288.776 220.73 285.042 223.189C281.309 225.648 276.919 226.96 272.429 226.96C266.408 226.96 260.634 224.603 256.376 220.406C252.119 216.21 249.727 210.518 249.727 204.584V204.584Z" fill="#1D2D3C"/>
<path d="M311.348 159.831C311.348 155.405 312.679 151.079 315.174 147.399C317.668 143.72 321.214 140.852 325.362 139.158C329.511 137.464 334.076 137.021 338.479 137.885C342.883 138.748 346.928 140.879 350.103 144.009C353.278 147.138 355.441 151.125 356.317 155.466C357.193 159.806 356.743 164.305 355.025 168.394C353.306 172.483 350.397 175.978 346.663 178.436C342.93 180.895 338.54 182.207 334.05 182.207C328.029 182.207 322.255 179.85 317.997 175.654C313.74 171.457 311.348 165.766 311.348 159.831V159.831Z" fill="#1D2D3C"/>
<path d="M58.3777 249.336C58.3777 244.911 59.7092 240.585 62.2038 236.905C64.6984 233.225 68.244 230.357 72.3923 228.663C76.5407 226.97 81.1054 226.527 85.5092 227.39C89.9131 228.253 93.9582 230.385 97.1332 233.514C100.308 236.643 102.47 240.63 103.346 244.971C104.222 249.312 103.773 253.811 102.055 257.9C100.336 261.988 97.4264 265.483 93.693 267.942C89.9596 270.4 85.5703 271.713 81.0802 271.713C75.0591 271.713 69.2847 269.355 65.0271 265.159C60.7696 260.963 58.3777 255.271 58.3777 249.336V249.336Z" fill="#1D2D3C"/>
<path d="M311.348 249.336C311.348 244.911 312.679 240.585 315.174 236.905C317.668 233.225 321.214 230.357 325.362 228.663C329.511 226.97 334.076 226.527 338.479 227.39C342.883 228.253 346.928 230.385 350.103 233.514C353.278 236.643 355.441 240.63 356.317 244.971C357.193 249.312 356.743 253.811 355.025 257.9C353.306 261.988 350.397 265.483 346.663 267.942C342.93 270.4 338.54 271.713 334.05 271.713C328.029 271.713 322.255 269.355 317.997 265.159C313.74 260.963 311.348 255.271 311.348 249.336V249.336Z" fill="#1D2D3C"/>
<path d="M184.863 249.336C184.863 244.911 186.194 240.585 188.689 236.905C191.183 233.225 194.729 230.357 198.877 228.663C203.026 226.97 207.59 226.527 211.994 227.39C216.398 228.253 220.443 230.385 223.618 233.514C226.793 236.643 228.955 240.63 229.831 244.971C230.707 249.312 230.258 253.811 228.54 257.9C226.821 261.988 223.911 265.483 220.178 267.942C216.445 270.4 212.055 271.713 207.565 271.713C201.544 271.713 195.77 269.355 191.512 265.159C187.255 260.963 184.863 255.271 184.863 249.336V249.336Z" fill="#1D2D3C"/>
<path d="M249.727 294.089C249.727 289.664 251.058 285.337 253.553 281.658C256.048 277.978 259.593 275.11 263.742 273.416C267.89 271.722 272.455 271.279 276.858 272.143C281.262 273.006 285.307 275.137 288.482 278.267C291.657 281.396 293.82 285.383 294.696 289.724C295.572 294.064 295.122 298.563 293.404 302.652C291.685 306.741 288.776 310.236 285.042 312.694C281.309 315.153 276.919 316.465 272.429 316.465C266.408 316.465 260.634 314.108 256.376 309.912C252.119 305.715 249.727 300.024 249.727 294.089V294.089Z" fill="#1D2D3C"/>
<path d="M184.863 338.842C184.863 334.416 186.194 330.09 188.689 326.41C191.183 322.73 194.729 319.862 198.877 318.169C203.026 316.475 207.59 316.032 211.994 316.895C216.398 317.759 220.443 319.89 223.618 323.019C226.793 326.149 228.955 330.136 229.831 334.476C230.707 338.817 230.258 343.316 228.54 347.405C226.821 351.494 223.911 354.988 220.178 357.447C216.445 359.906 212.055 361.218 207.565 361.218C201.544 361.218 195.77 358.861 191.512 354.664C187.255 350.468 184.863 344.776 184.863 338.842V338.842Z" fill="#1D2D3C"/>
</g>
<defs>
<clipPath id="clip0">
<rect width="415.13" height="409.168" fill="white"/>
</clipPath>
</defs>
</svg>
