<svg width="698" height="586" viewBox="0 0 698 586" fill="none" xmlns="http://www.w3.org/2000/svg">
<rect width="698" height="560" fill="white"/>
<path d="M172.828 158.055C169.781 158.055 168.258 157.188 168.258 155.453C168.258 154.094 169.102 153.414 170.789 153.414L174.234 153.766C177.047 153.766 178.922 152.195 179.859 149.055C180.703 146.383 181.125 141.602 181.125 134.711V68.9688H179.227C171.023 68.9688 164.484 69.8125 159.609 71.5C156.234 72.7188 153.938 74.8047 152.719 77.7578C151.828 79.9141 150.891 80.9922 149.906 80.9922C148.547 80.9922 147.867 80.1953 147.867 78.6016C147.867 78.1328 147.961 77.5938 148.148 76.9844C148.383 76.375 148.641 75.6484 148.922 74.8047C149.672 72.5547 150.117 70.2109 150.258 67.7734C150.398 65.3359 150.656 63.7187 151.031 62.9219C151.453 62.0781 152.016 61.6562 152.719 61.6562C153.422 61.6562 154.055 61.7266 154.617 61.8672C155.18 61.9609 156 62.0781 157.078 62.2188C159.891 62.5937 163.43 62.7812 167.695 62.7812H212.273C215.742 62.7812 218.25 62.5937 219.797 62.2188C221.391 61.8438 222.539 61.6562 223.242 61.6562C224.789 61.6562 225.562 62.3828 225.562 63.8359C225.562 64.5859 225.422 65.4766 225.141 66.5078C224.438 68.8047 223.969 70.7969 223.734 72.4844C223.547 74.125 223.359 75.4844 223.172 76.5625C222.984 77.5938 222.773 78.4141 222.539 79.0234C222.164 80.0547 221.602 80.5703 220.852 80.5703C220.102 80.5703 219.609 80.3125 219.375 79.7969C219.188 79.2344 218.977 78.1797 218.742 76.6328C218.508 75.0859 218.109 73.8203 217.547 72.8359C216.984 71.8516 216.234 71.0781 215.297 70.5156C213.656 69.4844 210.984 68.9688 207.281 68.9688H192.164V134.711C192.164 141.789 192.469 146.359 193.078 148.422C193.734 150.438 194.508 151.844 195.398 152.641C196.336 153.391 197.555 153.766 199.055 153.766L202.43 153.414C204.117 153.414 204.961 154.094 204.961 155.453C204.961 157.188 203.461 158.055 200.461 158.055C198.914 158.055 197.273 157.914 195.539 157.633C189.914 156.742 185.086 156.578 181.055 157.141C177.07 157.75 174.328 158.055 172.828 158.055ZM238.922 158.055C235.828 158.055 234.281 157.188 234.281 155.453C234.281 154.094 235.148 153.414 236.883 153.414L240.398 153.766C241.477 153.766 242.367 153.578 243.07 153.203C243.773 152.781 244.312 151.914 244.688 150.602C245.438 148.211 245.812 142.914 245.812 134.711V79.4453C245.812 74.9922 245.461 72.1094 244.758 70.7969C244.055 69.4375 243.305 68.5234 242.508 68.0547C241.711 67.5859 240.422 67.2109 238.641 66.9297C236.906 66.6484 236.039 65.9219 236.039 64.75C236.039 63.6719 237.234 62.8984 239.625 62.4297C245.203 61.2578 249.047 60.0859 251.156 58.9141C254.016 57.2734 255.961 56.4531 256.992 56.4531C258.07 56.4531 258.609 56.9922 258.609 58.0703C258.609 58.5859 258.516 59.125 258.328 59.6875C257.344 62.2188 256.828 65.4297 256.781 69.3203C256.734 73.2109 256.711 76.3984 256.711 78.8828V106.305C260.602 98.8516 266.109 94 273.234 91.75C275.484 91.0469 277.734 90.6953 279.984 90.6953C286.828 90.6953 292.125 92.6875 295.875 96.6719C299.625 100.656 301.5 106.867 301.5 115.305V134.711C301.5 142.914 301.781 147.953 302.344 149.828C302.906 151.656 303.539 152.781 304.242 153.203C304.945 153.578 305.836 153.766 306.914 153.766L310.43 153.414C312.164 153.414 313.031 154.094 313.031 155.453C313.031 157.188 311.461 158.055 308.32 158.055C306.539 158.055 304.641 157.867 302.625 157.492C300.609 157.164 298.43 157 296.086 157C293.789 157 291.586 157.164 289.477 157.492C287.414 157.867 285.492 158.055 283.711 158.055C280.57 158.055 279 157.188 279 155.453C279 154.094 279.867 153.414 281.602 153.414L285.117 153.766C286.195 153.766 287.086 153.578 287.789 153.203C288.492 152.781 289.055 151.914 289.477 150.602C290.227 148.258 290.602 142.961 290.602 134.711V118.68C290.602 105.32 285.68 98.6406 275.836 98.6406C268.711 98.6406 263.297 102.344 259.594 109.75C258.281 112.328 257.32 115.375 256.711 118.891V134.711C256.711 142.914 256.992 147.953 257.555 149.828C258.117 151.656 258.75 152.781 259.453 153.203C260.156 153.578 261.047 153.766 262.125 153.766L265.641 153.414C267.375 153.414 268.242 154.094 268.242 155.453C268.242 157.188 266.695 158.055 263.602 158.055C261.82 158.055 259.969 157.867 258.047 157.492C256.125 157.164 253.922 157 251.438 157C248.953 157 246.68 157.164 244.617 157.492C242.602 157.867 240.703 158.055 238.922 158.055ZM329.203 149.125C326.484 146.078 324.375 142.492 322.875 138.367C321.422 134.242 320.695 129.672 320.695 124.656C320.695 119.594 321.562 114.953 323.297 110.734C325.031 106.516 327.422 102.906 330.469 99.9062C336.797 93.6719 344.602 90.5547 353.883 90.5547C361.57 90.5547 367.781 93.0859 372.516 98.1484C377.016 103.023 379.266 109.047 379.266 116.219C379.266 118.562 378.938 120.18 378.281 121.07C377.672 121.914 376.898 122.43 375.961 122.617C375.023 122.758 373.734 122.898 372.094 123.039C370.453 123.133 368.461 123.25 366.117 123.391C363.773 123.531 361.148 123.672 358.242 123.812C355.383 123.953 352.453 124.117 349.453 124.305C342.562 124.727 337.031 125.148 332.859 125.57C333.891 138.18 338.719 146.359 347.344 150.109C350.156 151.328 353.156 151.938 356.344 151.938C363.094 151.938 368.438 149.969 372.375 146.031C374.062 144.344 375.352 143.5 376.242 143.5C377.93 143.5 378.773 144.508 378.773 146.523C378.773 147.555 378.07 148.797 376.664 150.25C375.258 151.703 373.242 153.203 370.617 154.75C365.977 157.422 360.562 158.758 354.375 158.758C348.188 158.758 343.125 157.914 339.188 156.227C335.297 154.492 331.969 152.125 329.203 149.125ZM332.719 120.367C354.703 119.242 366.281 118.047 367.453 116.781C367.875 116.312 368.086 114.93 368.086 112.633C368.086 110.336 367.641 108.109 366.75 105.953C365.859 103.75 364.664 101.875 363.164 100.328C360.07 97.1875 356.227 95.6172 351.633 95.6172C346.43 95.6172 342.047 97.7969 338.484 102.156C334.734 106.703 332.812 112.773 332.719 120.367ZM153.352 320.055C150.305 320.055 148.781 319.188 148.781 317.453C148.781 316.094 149.625 315.414 151.312 315.414L154.758 315.766C157.57 315.766 159.469 314.195 160.453 311.055C161.25 308.383 161.648 303.602 161.648 296.711V247.07C161.648 240.18 161.32 235.68 160.664 233.57C160.008 231.414 159.211 229.961 158.273 229.211C157.383 228.414 156.211 228.016 154.758 228.016L151.312 228.297C149.625 228.297 148.781 227.617 148.781 226.258C148.781 224.523 150.07 223.656 152.648 223.656C155.227 223.656 157.664 223.844 159.961 224.219C162.305 224.594 164.883 224.781 167.695 224.781C170.555 224.781 173.062 224.594 175.219 224.219C177.422 223.844 179.344 223.656 180.984 223.656C191.016 223.656 199.125 226.703 205.312 232.797C210.938 238.375 213.75 245.102 213.75 252.977C213.75 260.242 210.938 266.57 205.312 271.961C199.781 277.211 193.453 279.836 186.328 279.836C180.844 279.836 177.094 278.758 175.078 276.602C174.469 275.945 174.164 275.242 174.164 274.492C174.164 273.695 174.375 273.109 174.797 272.734C175.266 272.312 175.828 272.102 176.484 272.102C177.141 272.102 178.055 272.547 179.227 273.438C181.055 274.75 183.328 275.406 186.047 275.406C188.766 275.406 191.062 274.891 192.938 273.859C194.859 272.781 196.477 271.281 197.789 269.359C200.508 265.375 201.867 260.008 201.867 253.258C201.867 245.664 199.758 239.617 195.539 235.117C191.461 230.758 186.164 228.578 179.648 228.578C177.258 228.578 175.5 228.906 174.375 229.562C173.25 230.219 172.688 231.344 172.688 232.938V296.711C172.688 303.789 172.992 308.359 173.602 310.422C174.258 312.438 175.031 313.844 175.922 314.641C176.859 315.391 178.078 315.766 179.578 315.766L182.953 315.414C184.641 315.414 185.484 316.094 185.484 317.453C185.484 319.188 183.984 320.055 180.984 320.055C179.438 320.055 177.797 319.914 176.062 319.633C170.438 318.742 165.609 318.578 161.578 319.141C157.594 319.75 154.852 320.055 153.352 320.055ZM289.125 309.578C290.484 309.578 291.164 310.211 291.164 311.477C291.164 312.695 289.805 313.867 287.086 314.992C284.367 316.117 282.469 317.148 281.391 318.086C280.312 318.977 279.516 319.633 279 320.055C278.484 320.523 277.875 320.758 277.172 320.758C275.766 320.758 274.594 320.172 273.656 319C272.719 317.828 271.453 315.32 269.859 311.477C267.188 314.523 263.93 316.844 260.086 318.438C256.289 319.984 252.516 320.758 248.766 320.758C241.688 320.758 236.203 318.953 232.312 315.344C228.422 311.734 226.477 306.789 226.477 300.508C226.477 294.227 229.406 289.141 235.266 285.25C241.172 281.312 248.695 279.344 257.836 279.344C260.555 279.344 264.141 279.812 268.594 280.75V275.266C268.594 263.219 263.508 257.195 253.336 257.195C247.945 257.195 243.984 259.68 241.453 264.648C239.25 269.102 237.094 271.328 234.984 271.328C233.438 271.328 232.078 270.883 230.906 269.992C229.781 269.102 229.219 267.977 229.219 266.617C229.219 265.258 229.922 263.758 231.328 262.117C232.734 260.43 234.609 258.906 236.953 257.547C242.484 254.312 248.555 252.695 255.164 252.695C266.883 252.695 274.453 256.516 277.875 264.156C279.141 266.875 279.773 270.203 279.773 274.141V302.195C279.773 305.805 280.125 308.125 280.828 309.156C281.531 310.188 282.516 310.703 283.781 310.703C285.047 310.703 286.078 310.516 286.875 310.141C287.672 309.766 288.422 309.578 289.125 309.578ZM268.594 287.289C265.219 285.367 260.953 284.406 255.797 284.406C250.641 284.406 246.492 285.695 243.352 288.273C240.258 290.852 238.711 294.32 238.711 298.68C238.711 302.992 239.906 306.602 242.297 309.508C244.688 312.367 247.758 313.797 251.508 313.797C259.523 313.797 265.289 311.172 268.805 305.922C268.664 304.609 268.594 303.156 268.594 301.562V287.289ZM298.195 343.68L304.102 344.172C304.711 344.172 305.203 344.031 305.578 343.75C305.953 343.469 306.258 342.812 306.492 341.781C306.914 339.906 307.125 335.781 307.125 329.406V275.617C307.125 271.211 306.773 268.352 306.07 267.039C305.367 265.68 304.617 264.766 303.82 264.297C303.023 263.828 301.734 263.453 299.953 263.172C298.219 262.891 297.352 262.164 297.352 260.992C297.352 259.914 298.547 259.141 300.938 258.672C306.562 257.5 310.43 256.305 312.539 255.086C315.398 253.492 317.32 252.695 318.305 252.695C319.383 252.695 319.922 253.234 319.922 254.312C319.922 254.828 319.805 255.367 319.57 255.93C319.383 256.492 319.172 257.148 318.938 257.898C318.609 259.117 318.352 261.438 318.164 264.859C323.883 256.75 331.102 252.695 339.82 252.695C348.68 252.695 355.734 255.859 360.984 262.188C366.047 268.328 368.578 276.297 368.578 286.094C368.578 295.703 365.438 303.859 359.156 310.562C352.828 317.359 345 320.758 335.672 320.758C328.922 320.758 323.039 318.977 318.023 315.414V329.406C318.023 338.266 318.398 343.047 319.148 343.75C319.477 344.031 319.898 344.172 320.414 344.172L329.836 343.398C330.773 343.398 331.523 343.68 332.086 344.242C332.648 344.852 332.93 345.484 332.93 346.141C332.93 348.156 331.219 349.164 327.797 349.164L312.961 348.109C310.57 348.109 308.297 348.273 306.141 348.602C304.031 348.977 302.086 349.164 300.305 349.164C298.523 349.164 297.281 348.836 296.578 348.18C295.922 347.57 295.594 346.914 295.594 346.211C295.594 345.508 295.828 344.898 296.297 344.383C296.766 343.914 297.398 343.68 298.195 343.68ZM318.023 303.461C320.789 309.18 325.359 312.93 331.734 314.711C333.75 315.273 335.906 315.555 338.203 315.555C340.5 315.555 342.797 315.062 345.094 314.078C347.438 313.047 349.477 311.477 351.211 309.367C355.008 304.727 356.906 298.258 356.906 289.961C356.906 280.727 354.914 273.344 350.93 267.812C347.18 262.562 342.469 259.938 336.797 259.938C330.984 259.938 325.875 262.469 321.469 267.531C320.109 269.125 318.961 270.906 318.023 272.875V303.461ZM388.547 311.125C385.828 308.078 383.719 304.492 382.219 300.367C380.766 296.242 380.039 291.672 380.039 286.656C380.039 281.594 380.906 276.953 382.641 272.734C384.375 268.516 386.766 264.906 389.812 261.906C396.141 255.672 403.945 252.555 413.227 252.555C420.914 252.555 427.125 255.086 431.859 260.148C436.359 265.023 438.609 271.047 438.609 278.219C438.609 280.562 438.281 282.18 437.625 283.07C437.016 283.914 436.242 284.43 435.305 284.617C434.367 284.758 433.078 284.898 431.438 285.039C429.797 285.133 427.805 285.25 425.461 285.391C423.117 285.531 420.492 285.672 417.586 285.812C414.727 285.953 411.797 286.117 408.797 286.305C401.906 286.727 396.375 287.148 392.203 287.57C393.234 300.18 398.062 308.359 406.688 312.109C409.5 313.328 412.5 313.938 415.688 313.938C422.438 313.938 427.781 311.969 431.719 308.031C433.406 306.344 434.695 305.5 435.586 305.5C437.273 305.5 438.117 306.508 438.117 308.523C438.117 309.555 437.414 310.797 436.008 312.25C434.602 313.703 432.586 315.203 429.961 316.75C425.32 319.422 419.906 320.758 413.719 320.758C407.531 320.758 402.469 319.914 398.531 318.227C394.641 316.492 391.312 314.125 388.547 311.125ZM392.062 282.367C414.047 281.242 425.625 280.047 426.797 278.781C427.219 278.312 427.43 276.93 427.43 274.633C427.43 272.336 426.984 270.109 426.094 267.953C425.203 265.75 424.008 263.875 422.508 262.328C419.414 259.188 415.57 257.617 410.977 257.617C405.773 257.617 401.391 259.797 397.828 264.156C394.078 268.703 392.156 274.773 392.062 282.367ZM451.898 320.055C448.758 320.055 447.188 319.188 447.188 317.453C447.188 316.094 448.055 315.414 449.789 315.414L453.305 315.766C454.383 315.766 455.273 315.578 455.977 315.203C456.68 314.781 457.219 313.914 457.594 312.602C458.344 310.211 458.719 304.914 458.719 296.711V275.688C458.719 270.906 458.414 267.93 457.805 266.758C457.242 265.539 456.539 264.719 455.695 264.297C454.898 263.828 453.562 263.453 451.688 263.172C449.859 262.891 448.945 262.164 448.945 260.992C448.945 259.914 450.141 259.141 452.531 258.672C458.109 257.5 461.953 256.328 464.062 255.156C466.922 253.516 468.867 252.695 469.898 252.695C470.977 252.695 471.516 253.234 471.516 254.312C471.516 254.828 471.398 255.367 471.164 255.93C470.977 256.492 470.766 257.172 470.531 257.969C470.156 259.562 469.875 262.562 469.688 266.969C473.766 260.125 478.688 255.859 484.453 254.172C486.141 253.656 488.016 253.398 490.078 253.398C492.188 253.398 494.039 254.148 495.633 255.648C497.273 257.148 498.094 258.742 498.094 260.43C498.094 262.117 497.906 263.359 497.531 264.156C497.156 264.953 496.688 265.633 496.125 266.195C494.906 267.414 493.805 268.023 492.82 268.023C491.883 268.023 491.156 267.789 490.641 267.32C490.125 266.805 489.539 265.891 488.883 264.578C487.711 262.234 486.398 261.062 484.945 261.062C483.492 261.062 482.109 261.391 480.797 262.047C479.484 262.656 478.172 263.594 476.859 264.859C474 267.531 471.586 271.164 469.617 275.758V296.711C469.617 305.617 469.852 310.867 470.32 312.461C470.836 314.008 471.445 314.945 472.148 315.273C472.898 315.555 473.906 315.695 475.172 315.695L481.43 315.133C482.367 315.133 483.117 315.367 483.68 315.836C484.242 316.258 484.523 316.797 484.523 317.453C484.523 319.188 482.812 320.055 479.391 320.055L464.555 319C462.164 319 459.891 319.164 457.734 319.492C455.625 319.867 453.68 320.055 451.898 320.055ZM153.562 482.055C150.516 482.055 148.992 481.188 148.992 479.453C148.992 478.094 149.836 477.414 151.523 477.414L154.969 477.766C157.781 477.766 159.656 476.195 160.594 473.055C161.438 470.383 161.859 465.602 161.859 458.711V409.211C161.859 402.273 161.531 397.773 160.875 395.711C160.219 393.602 159.422 392.172 158.484 391.422C157.594 390.625 156.422 390.227 154.969 390.227L151.523 390.578C149.836 390.578 148.992 389.875 148.992 388.469C148.992 386.641 150.516 385.727 153.562 385.727L162.773 386.781C164.742 386.781 166.5 386.641 168.047 386.359L232.805 461.664V409.07C232.805 402.227 232.43 397.727 231.68 395.57C230.977 393.414 230.156 391.961 229.219 391.211C228.281 390.414 227.062 390.016 225.562 390.016L222.117 390.297C220.43 390.297 219.586 389.617 219.586 388.258C219.586 386.523 221.109 385.656 224.156 385.656C225.328 385.656 226.898 385.82 228.867 386.148C231.352 386.57 233.602 386.781 235.617 386.781C237.633 386.781 239.602 386.594 241.523 386.219C243.445 385.844 245.695 385.656 248.273 385.656C250.852 385.656 252.141 386.523 252.141 388.258C252.141 389.617 251.297 390.297 249.609 390.297L246.164 390.016C243.305 390.016 241.406 391.586 240.469 394.727C239.672 397.211 239.273 401.992 239.273 409.07V480.086C239.273 481.68 239.133 482.734 238.852 483.25C238.57 483.766 238.125 484.023 237.516 484.023C236.672 484.023 235.336 483.039 233.508 481.07L168.68 405.977V458.711C168.68 465.789 168.984 470.359 169.594 472.422C170.25 474.438 171.023 475.844 171.914 476.641C172.852 477.391 174.07 477.766 175.57 477.766L178.945 477.414C180.633 477.414 181.477 478.094 181.477 479.453C181.477 481.188 180.117 482.055 177.398 482.055C174.727 482.055 172.336 481.867 170.227 481.492C168.164 481.164 166.148 481 164.18 481C162.211 481 160.266 481.164 158.344 481.492C156.469 481.867 154.875 482.055 153.562 482.055ZM267.609 473.125C264.891 470.078 262.781 466.492 261.281 462.367C259.828 458.242 259.102 453.672 259.102 448.656C259.102 443.594 259.969 438.953 261.703 434.734C263.438 430.516 265.828 426.906 268.875 423.906C275.203 417.672 283.008 414.555 292.289 414.555C299.977 414.555 306.188 417.086 310.922 422.148C315.422 427.023 317.672 433.047 317.672 440.219C317.672 442.562 317.344 444.18 316.688 445.07C316.078 445.914 315.305 446.43 314.367 446.617C313.43 446.758 312.141 446.898 310.5 447.039C308.859 447.133 306.867 447.25 304.523 447.391C302.18 447.531 299.555 447.672 296.648 447.812C293.789 447.953 290.859 448.117 287.859 448.305C280.969 448.727 275.438 449.148 271.266 449.57C272.297 462.18 277.125 470.359 285.75 474.109C288.562 475.328 291.562 475.938 294.75 475.938C301.5 475.938 306.844 473.969 310.781 470.031C312.469 468.344 313.758 467.5 314.648 467.5C316.336 467.5 317.18 468.508 317.18 470.523C317.18 471.555 316.477 472.797 315.07 474.25C313.664 475.703 311.648 477.203 309.023 478.75C304.383 481.422 298.969 482.758 292.781 482.758C286.594 482.758 281.531 481.914 277.594 480.227C273.703 478.492 270.375 476.125 267.609 473.125ZM271.125 444.367C293.109 443.242 304.688 442.047 305.859 440.781C306.281 440.312 306.492 438.93 306.492 436.633C306.492 434.336 306.047 432.109 305.156 429.953C304.266 427.75 303.07 425.875 301.57 424.328C298.477 421.188 294.633 419.617 290.039 419.617C284.836 419.617 280.453 421.797 276.891 426.156C273.141 430.703 271.219 436.773 271.125 444.367ZM429.469 415.328C431.391 415.328 432.352 415.914 432.352 417.086C432.352 418.07 431.461 418.891 429.68 419.547C427.898 420.156 426.586 420.742 425.742 421.305C424.945 421.867 424.172 422.688 423.422 423.766C422.203 425.5 420.492 429.016 418.289 434.312L398.391 480.719C397.828 482.078 397.219 482.758 396.562 482.758C395.578 482.758 394.805 482.078 394.242 480.719L375.188 436.492L356.906 480.719C356.344 482.078 355.734 482.758 355.078 482.758C354.094 482.758 353.32 482.078 352.758 480.719L331.242 428.828C330.023 425.641 329.039 423.602 328.289 422.711C327.023 421.164 325.359 420.156 323.297 419.688C321.281 419.172 320.273 418.281 320.273 417.016C320.273 416.594 320.531 416.219 321.047 415.891C321.516 415.516 322.219 415.328 323.156 415.328L334.055 416.102C336.867 416.102 338.953 416.008 340.312 415.82C342.703 415.492 344.672 415.328 346.219 415.328C349.406 415.328 351 416.008 351 417.367C351 418.773 349.125 419.57 345.375 419.758C343.078 419.852 341.836 420.484 341.648 421.656C341.602 421.984 341.578 422.383 341.578 422.852C341.578 423.93 342.07 425.805 343.055 428.477L357.68 463.703L371.812 428.758L370.266 425.102C369.141 422.477 367.969 420.836 366.75 420.18C366.281 419.945 365.742 419.711 365.133 419.477C363.352 418.82 362.461 417.977 362.461 416.945C362.461 415.867 363.516 415.328 365.625 415.328L374.625 416.102C377.531 416.102 379.711 416.008 381.164 415.82C383.695 415.492 386.156 415.328 388.547 415.328C390.984 415.328 392.203 416.008 392.203 417.367C392.203 418.773 390.328 419.57 386.578 419.758C383.672 419.898 382.219 420.859 382.219 422.641C382.219 424.469 383.156 427.469 385.031 431.641L399.375 464.547L409.148 440.219C412.242 432.438 413.883 427.773 414.07 426.227C414.258 424.633 414.352 423.484 414.352 422.781C414.352 421 413.133 420.016 410.695 419.828C408.258 419.594 406.617 419.312 405.773 418.984C404.977 418.656 404.578 418.117 404.578 417.367C404.578 416.008 406.172 415.328 409.359 415.328L421.312 416.031L429.469 415.328ZM441.211 477.203C439.055 475.656 437.367 473.969 436.148 472.141C434.93 470.266 434.32 468.812 434.32 467.781C434.32 466.703 434.461 465.906 434.742 465.391C435.07 464.828 435.492 464.312 436.008 463.844C437.227 462.672 438.398 462.086 439.523 462.086C440.695 462.086 441.586 462.367 442.195 462.93C442.805 463.445 443.367 464.5 443.883 466.094C444.445 467.641 445.219 469.141 446.203 470.594C447.234 472.047 448.453 473.312 449.859 474.391C452.906 476.688 456.633 477.836 461.039 477.836C464.93 477.836 468.234 476.875 470.953 474.953C473.812 472.984 475.242 470.523 475.242 467.57C475.242 464.57 473.953 461.945 471.375 459.695C468.609 457.305 464.508 455.031 459.07 452.875C453.633 450.672 449.766 448.82 447.469 447.32C445.172 445.82 443.297 444.227 441.844 442.539C439.078 439.305 437.695 435.602 437.695 431.43C437.695 426.648 439.852 422.664 444.164 419.477C448.523 416.289 453.984 414.695 460.547 414.695C466.219 414.695 471 415.891 474.891 418.281C478.266 420.391 479.953 422.617 479.953 424.961C479.953 426.18 479.32 427.234 478.055 428.125C476.836 428.969 475.664 429.391 474.539 429.391C473.461 429.391 472.617 429.18 472.008 428.758C471.398 428.289 470.484 427.117 469.266 425.242C466.875 421.539 463.242 419.688 458.367 419.688C452.883 419.688 449.25 421.328 447.469 424.609C446.953 425.547 446.695 426.555 446.695 427.633C446.695 428.711 446.906 429.766 447.328 430.797C447.797 431.781 448.641 432.812 449.859 433.891C452.438 436.047 457.172 438.555 464.062 441.414C477.562 446.992 484.312 454.141 484.312 462.859C484.312 468.719 481.945 473.5 477.211 477.203C472.43 480.906 466.289 482.758 458.789 482.758C452.133 482.758 446.273 480.906 441.211 477.203Z" fill="black"/>
</svg>
