<svg width="352" height="429" viewBox="0 0 352 429" fill="none" xmlns="http://www.w3.org/2000/svg">
<path d="M25.8281 102.055C22.7812 102.055 21.2578 101.188 21.2578 99.4531C21.2578 98.0938 22.1016 97.4141 23.7891 97.4141L27.2344 97.7656C30.0469 97.7656 31.9219 96.1953 32.8594 93.0547C33.7031 90.3828 34.125 85.6016 34.125 78.7109V12.9688H32.2266C24.0234 12.9688 17.4844 13.8125 12.6094 15.5C9.23438 16.7187 6.9375 18.8047 5.71875 21.7578C4.82812 23.9141 3.89062 24.9922 2.90625 24.9922C1.54688 24.9922 0.867188 24.1953 0.867188 22.6016C0.867188 22.1328 0.960938 21.5938 1.14844 20.9844C1.38281 20.375 1.64062 19.6484 1.92188 18.8047C2.67188 16.5547 3.11719 14.2109 3.25781 11.7734C3.39844 9.33594 3.65625 7.71875 4.03125 6.92188C4.45312 6.07812 5.01562 5.65625 5.71875 5.65625C6.42188 5.65625 7.05469 5.72656 7.61719 5.86719C8.17969 5.96094 9 6.07812 10.0781 6.21875C12.8906 6.59375 16.4297 6.78125 20.6953 6.78125H65.2734C68.7422 6.78125 71.25 6.59375 72.7969 6.21875C74.3906 5.84375 75.5391 5.65625 76.2422 5.65625C77.7891 5.65625 78.5625 6.38281 78.5625 7.83594C78.5625 8.58594 78.4219 9.47656 78.1406 10.5078C77.4375 12.8047 76.9688 14.7969 76.7344 16.4844C76.5469 18.125 76.3594 19.4844 76.1719 20.5625C75.9844 21.5938 75.7734 22.4141 75.5391 23.0234C75.1641 24.0547 74.6016 24.5703 73.8516 24.5703C73.1016 24.5703 72.6094 24.3125 72.375 23.7969C72.1875 23.2344 71.9766 22.1797 71.7422 20.6328C71.5078 19.0859 71.1094 17.8203 70.5469 16.8359C69.9844 15.8516 69.2344 15.0781 68.2969 14.5156C66.6562 13.4844 63.9844 12.9688 60.2812 12.9688H45.1641V78.7109C45.1641 85.7891 45.4688 90.3594 46.0781 92.4219C46.7344 94.4375 47.5078 95.8438 48.3984 96.6406C49.3359 97.3906 50.5547 97.7656 52.0547 97.7656L55.4297 97.4141C57.1172 97.4141 57.9609 98.0938 57.9609 99.4531C57.9609 101.188 56.4609 102.055 53.4609 102.055C51.9141 102.055 50.2734 101.914 48.5391 101.633C42.9141 100.742 38.0859 100.578 34.0547 101.141C30.0703 101.75 27.3281 102.055 25.8281 102.055ZM91.9219 102.055C88.8281 102.055 87.2812 101.188 87.2812 99.4531C87.2812 98.0938 88.1484 97.4141 89.8828 97.4141L93.3984 97.7656C94.4766 97.7656 95.3672 97.5781 96.0703 97.2031C96.7734 96.7812 97.3125 95.9141 97.6875 94.6016C98.4375 92.2109 98.8125 86.9141 98.8125 78.7109V23.4453C98.8125 18.9922 98.4609 16.1094 97.7578 14.7969C97.0547 13.4375 96.3047 12.5234 95.5078 12.0547C94.7109 11.5859 93.4219 11.2109 91.6406 10.9297C89.9062 10.6484 89.0391 9.92188 89.0391 8.75C89.0391 7.67188 90.2344 6.89844 92.625 6.42969C98.2031 5.25781 102.047 4.08594 104.156 2.91406C107.016 1.27344 108.961 0.453125 109.992 0.453125C111.07 0.453125 111.609 0.992188 111.609 2.07031C111.609 2.58594 111.516 3.125 111.328 3.6875C110.344 6.21875 109.828 9.42969 109.781 13.3203C109.734 17.2109 109.711 20.3984 109.711 22.8828V50.3047C113.602 42.8516 119.109 38 126.234 35.75C128.484 35.0469 130.734 34.6953 132.984 34.6953C139.828 34.6953 145.125 36.6875 148.875 40.6719C152.625 44.6562 154.5 50.8672 154.5 59.3047V78.7109C154.5 86.9141 154.781 91.9531 155.344 93.8281C155.906 95.6562 156.539 96.7812 157.242 97.2031C157.945 97.5781 158.836 97.7656 159.914 97.7656L163.43 97.4141C165.164 97.4141 166.031 98.0938 166.031 99.4531C166.031 101.188 164.461 102.055 161.32 102.055C159.539 102.055 157.641 101.867 155.625 101.492C153.609 101.164 151.43 101 149.086 101C146.789 101 144.586 101.164 142.477 101.492C140.414 101.867 138.492 102.055 136.711 102.055C133.57 102.055 132 101.188 132 99.4531C132 98.0938 132.867 97.4141 134.602 97.4141L138.117 97.7656C139.195 97.7656 140.086 97.5781 140.789 97.2031C141.492 96.7812 142.055 95.9141 142.477 94.6016C143.227 92.2578 143.602 86.9609 143.602 78.7109V62.6797C143.602 49.3203 138.68 42.6406 128.836 42.6406C121.711 42.6406 116.297 46.3438 112.594 53.75C111.281 56.3281 110.32 59.375 109.711 62.8906V78.7109C109.711 86.9141 109.992 91.9531 110.555 93.8281C111.117 95.6562 111.75 96.7812 112.453 97.2031C113.156 97.5781 114.047 97.7656 115.125 97.7656L118.641 97.4141C120.375 97.4141 121.242 98.0938 121.242 99.4531C121.242 101.188 119.695 102.055 116.602 102.055C114.82 102.055 112.969 101.867 111.047 101.492C109.125 101.164 106.922 101 104.438 101C101.953 101 99.6797 101.164 97.6172 101.492C95.6016 101.867 93.7031 102.055 91.9219 102.055ZM182.203 93.125C179.484 90.0781 177.375 86.4922 175.875 82.3672C174.422 78.2422 173.695 73.6719 173.695 68.6562C173.695 63.5938 174.562 58.9531 176.297 54.7344C178.031 50.5156 180.422 46.9062 183.469 43.9062C189.797 37.6719 197.602 34.5547 206.883 34.5547C214.57 34.5547 220.781 37.0859 225.516 42.1484C230.016 47.0234 232.266 53.0469 232.266 60.2188C232.266 62.5625 231.938 64.1797 231.281 65.0703C230.672 65.9141 229.898 66.4297 228.961 66.6172C228.023 66.7578 226.734 66.8984 225.094 67.0391C223.453 67.1328 221.461 67.25 219.117 67.3906C216.773 67.5312 214.148 67.6719 211.242 67.8125C208.383 67.9531 205.453 68.1172 202.453 68.3047C195.562 68.7266 190.031 69.1484 185.859 69.5703C186.891 82.1797 191.719 90.3594 200.344 94.1094C203.156 95.3281 206.156 95.9375 209.344 95.9375C216.094 95.9375 221.438 93.9688 225.375 90.0312C227.062 88.3438 228.352 87.5 229.242 87.5C230.93 87.5 231.773 88.5078 231.773 90.5234C231.773 91.5547 231.07 92.7969 229.664 94.25C228.258 95.7031 226.242 97.2031 223.617 98.75C218.977 101.422 213.562 102.758 207.375 102.758C201.188 102.758 196.125 101.914 192.188 100.227C188.297 98.4922 184.969 96.125 182.203 93.125ZM185.719 64.3672C207.703 63.2422 219.281 62.0469 220.453 60.7812C220.875 60.3125 221.086 58.9297 221.086 56.6328C221.086 54.3359 220.641 52.1094 219.75 49.9531C218.859 47.75 217.664 45.875 216.164 44.3281C213.07 41.1875 209.227 39.6172 204.633 39.6172C199.43 39.6172 195.047 41.7969 191.484 46.1562C187.734 50.7031 185.812 56.7734 185.719 64.3672ZM6.35156 264.055C3.30469 264.055 1.78125 263.188 1.78125 261.453C1.78125 260.094 2.625 259.414 4.3125 259.414L7.75781 259.766C10.5703 259.766 12.4688 258.195 13.4531 255.055C14.25 252.383 14.6484 247.602 14.6484 240.711V191.07C14.6484 184.18 14.3203 179.68 13.6641 177.57C13.0078 175.414 12.2109 173.961 11.2734 173.211C10.3828 172.414 9.21094 172.016 7.75781 172.016L4.3125 172.297C2.625 172.297 1.78125 171.617 1.78125 170.258C1.78125 168.523 3.07031 167.656 5.64844 167.656C8.22656 167.656 10.6641 167.844 12.9609 168.219C15.3047 168.594 17.8828 168.781 20.6953 168.781C23.5547 168.781 26.0625 168.594 28.2188 168.219C30.4219 167.844 32.3438 167.656 33.9844 167.656C44.0156 167.656 52.125 170.703 58.3125 176.797C63.9375 182.375 66.75 189.102 66.75 196.977C66.75 204.242 63.9375 210.57 58.3125 215.961C52.7812 221.211 46.4531 223.836 39.3281 223.836C33.8438 223.836 30.0938 222.758 28.0781 220.602C27.4688 219.945 27.1641 219.242 27.1641 218.492C27.1641 217.695 27.375 217.109 27.7969 216.734C28.2656 216.312 28.8281 216.102 29.4844 216.102C30.1406 216.102 31.0547 216.547 32.2266 217.438C34.0547 218.75 36.3281 219.406 39.0469 219.406C41.7656 219.406 44.0625 218.891 45.9375 217.859C47.8594 216.781 49.4766 215.281 50.7891 213.359C53.5078 209.375 54.8672 204.008 54.8672 197.258C54.8672 189.664 52.7578 183.617 48.5391 179.117C44.4609 174.758 39.1641 172.578 32.6484 172.578C30.2578 172.578 28.5 172.906 27.375 173.562C26.25 174.219 25.6875 175.344 25.6875 176.938V240.711C25.6875 247.789 25.9922 252.359 26.6016 254.422C27.2578 256.438 28.0312 257.844 28.9219 258.641C29.8594 259.391 31.0781 259.766 32.5781 259.766L35.9531 259.414C37.6406 259.414 38.4844 260.094 38.4844 261.453C38.4844 263.188 36.9844 264.055 33.9844 264.055C32.4375 264.055 30.7969 263.914 29.0625 263.633C23.4375 262.742 18.6094 262.578 14.5781 263.141C10.5938 263.75 7.85156 264.055 6.35156 264.055ZM142.125 253.578C143.484 253.578 144.164 254.211 144.164 255.477C144.164 256.695 142.805 257.867 140.086 258.992C137.367 260.117 135.469 261.148 134.391 262.086C133.312 262.977 132.516 263.633 132 264.055C131.484 264.523 130.875 264.758 130.172 264.758C128.766 264.758 127.594 264.172 126.656 263C125.719 261.828 124.453 259.32 122.859 255.477C120.188 258.523 116.93 260.844 113.086 262.438C109.289 263.984 105.516 264.758 101.766 264.758C94.6875 264.758 89.2031 262.953 85.3125 259.344C81.4219 255.734 79.4766 250.789 79.4766 244.508C79.4766 238.227 82.4062 233.141 88.2656 229.25C94.1719 225.312 101.695 223.344 110.836 223.344C113.555 223.344 117.141 223.812 121.594 224.75V219.266C121.594 207.219 116.508 201.195 106.336 201.195C100.945 201.195 96.9844 203.68 94.4531 208.648C92.25 213.102 90.0938 215.328 87.9844 215.328C86.4375 215.328 85.0781 214.883 83.9062 213.992C82.7812 213.102 82.2188 211.977 82.2188 210.617C82.2188 209.258 82.9219 207.758 84.3281 206.117C85.7344 204.43 87.6094 202.906 89.9531 201.547C95.4844 198.312 101.555 196.695 108.164 196.695C119.883 196.695 127.453 200.516 130.875 208.156C132.141 210.875 132.773 214.203 132.773 218.141V246.195C132.773 249.805 133.125 252.125 133.828 253.156C134.531 254.188 135.516 254.703 136.781 254.703C138.047 254.703 139.078 254.516 139.875 254.141C140.672 253.766 141.422 253.578 142.125 253.578ZM121.594 231.289C118.219 229.367 113.953 228.406 108.797 228.406C103.641 228.406 99.4922 229.695 96.3516 232.273C93.2578 234.852 91.7109 238.32 91.7109 242.68C91.7109 246.992 92.9062 250.602 95.2969 253.508C97.6875 256.367 100.758 257.797 104.508 257.797C112.523 257.797 118.289 255.172 121.805 249.922C121.664 248.609 121.594 247.156 121.594 245.562V231.289ZM151.195 287.68L157.102 288.172C157.711 288.172 158.203 288.031 158.578 287.75C158.953 287.469 159.258 286.812 159.492 285.781C159.914 283.906 160.125 279.781 160.125 273.406V219.617C160.125 215.211 159.773 212.352 159.07 211.039C158.367 209.68 157.617 208.766 156.82 208.297C156.023 207.828 154.734 207.453 152.953 207.172C151.219 206.891 150.352 206.164 150.352 204.992C150.352 203.914 151.547 203.141 153.938 202.672C159.562 201.5 163.43 200.305 165.539 199.086C168.398 197.492 170.32 196.695 171.305 196.695C172.383 196.695 172.922 197.234 172.922 198.312C172.922 198.828 172.805 199.367 172.57 199.93C172.383 200.492 172.172 201.148 171.938 201.898C171.609 203.117 171.352 205.438 171.164 208.859C176.883 200.75 184.102 196.695 192.82 196.695C201.68 196.695 208.734 199.859 213.984 206.188C219.047 212.328 221.578 220.297 221.578 230.094C221.578 239.703 218.438 247.859 212.156 254.562C205.828 261.359 198 264.758 188.672 264.758C181.922 264.758 176.039 262.977 171.023 259.414V273.406C171.023 282.266 171.398 287.047 172.148 287.75C172.477 288.031 172.898 288.172 173.414 288.172L182.836 287.398C183.773 287.398 184.523 287.68 185.086 288.242C185.648 288.852 185.93 289.484 185.93 290.141C185.93 292.156 184.219 293.164 180.797 293.164L165.961 292.109C163.57 292.109 161.297 292.273 159.141 292.602C157.031 292.977 155.086 293.164 153.305 293.164C151.523 293.164 150.281 292.836 149.578 292.18C148.922 291.57 148.594 290.914 148.594 290.211C148.594 289.508 148.828 288.898 149.297 288.383C149.766 287.914 150.398 287.68 151.195 287.68ZM171.023 247.461C173.789 253.18 178.359 256.93 184.734 258.711C186.75 259.273 188.906 259.555 191.203 259.555C193.5 259.555 195.797 259.062 198.094 258.078C200.438 257.047 202.477 255.477 204.211 253.367C208.008 248.727 209.906 242.258 209.906 233.961C209.906 224.727 207.914 217.344 203.93 211.812C200.18 206.562 195.469 203.938 189.797 203.938C183.984 203.938 178.875 206.469 174.469 211.531C173.109 213.125 171.961 214.906 171.023 216.875V247.461ZM241.547 255.125C238.828 252.078 236.719 248.492 235.219 244.367C233.766 240.242 233.039 235.672 233.039 230.656C233.039 225.594 233.906 220.953 235.641 216.734C237.375 212.516 239.766 208.906 242.812 205.906C249.141 199.672 256.945 196.555 266.227 196.555C273.914 196.555 280.125 199.086 284.859 204.148C289.359 209.023 291.609 215.047 291.609 222.219C291.609 224.562 291.281 226.18 290.625 227.07C290.016 227.914 289.242 228.43 288.305 228.617C287.367 228.758 286.078 228.898 284.438 229.039C282.797 229.133 280.805 229.25 278.461 229.391C276.117 229.531 273.492 229.672 270.586 229.812C267.727 229.953 264.797 230.117 261.797 230.305C254.906 230.727 249.375 231.148 245.203 231.57C246.234 244.18 251.062 252.359 259.688 256.109C262.5 257.328 265.5 257.938 268.688 257.938C275.438 257.938 280.781 255.969 284.719 252.031C286.406 250.344 287.695 249.5 288.586 249.5C290.273 249.5 291.117 250.508 291.117 252.523C291.117 253.555 290.414 254.797 289.008 256.25C287.602 257.703 285.586 259.203 282.961 260.75C278.32 263.422 272.906 264.758 266.719 264.758C260.531 264.758 255.469 263.914 251.531 262.227C247.641 260.492 244.312 258.125 241.547 255.125ZM245.062 226.367C267.047 225.242 278.625 224.047 279.797 222.781C280.219 222.312 280.43 220.93 280.43 218.633C280.43 216.336 279.984 214.109 279.094 211.953C278.203 209.75 277.008 207.875 275.508 206.328C272.414 203.188 268.57 201.617 263.977 201.617C258.773 201.617 254.391 203.797 250.828 208.156C247.078 212.703 245.156 218.773 245.062 226.367ZM304.898 264.055C301.758 264.055 300.188 263.188 300.188 261.453C300.188 260.094 301.055 259.414 302.789 259.414L306.305 259.766C307.383 259.766 308.273 259.578 308.977 259.203C309.68 258.781 310.219 257.914 310.594 256.602C311.344 254.211 311.719 248.914 311.719 240.711V219.688C311.719 214.906 311.414 211.93 310.805 210.758C310.242 209.539 309.539 208.719 308.695 208.297C307.898 207.828 306.562 207.453 304.688 207.172C302.859 206.891 301.945 206.164 301.945 204.992C301.945 203.914 303.141 203.141 305.531 202.672C311.109 201.5 314.953 200.328 317.062 199.156C319.922 197.516 321.867 196.695 322.898 196.695C323.977 196.695 324.516 197.234 324.516 198.312C324.516 198.828 324.398 199.367 324.164 199.93C323.977 200.492 323.766 201.172 323.531 201.969C323.156 203.562 322.875 206.562 322.688 210.969C326.766 204.125 331.688 199.859 337.453 198.172C339.141 197.656 341.016 197.398 343.078 197.398C345.188 197.398 347.039 198.148 348.633 199.648C350.273 201.148 351.094 202.742 351.094 204.43C351.094 206.117 350.906 207.359 350.531 208.156C350.156 208.953 349.688 209.633 349.125 210.195C347.906 211.414 346.805 212.023 345.82 212.023C344.883 212.023 344.156 211.789 343.641 211.32C343.125 210.805 342.539 209.891 341.883 208.578C340.711 206.234 339.398 205.062 337.945 205.062C336.492 205.062 335.109 205.391 333.797 206.047C332.484 206.656 331.172 207.594 329.859 208.859C327 211.531 324.586 215.164 322.617 219.758V240.711C322.617 249.617 322.852 254.867 323.32 256.461C323.836 258.008 324.445 258.945 325.148 259.273C325.898 259.555 326.906 259.695 328.172 259.695L334.43 259.133C335.367 259.133 336.117 259.367 336.68 259.836C337.242 260.258 337.523 260.797 337.523 261.453C337.523 263.188 335.812 264.055 332.391 264.055L317.555 263C315.164 263 312.891 263.164 310.734 263.492C308.625 263.867 306.68 264.055 304.898 264.055ZM6.5625 426.055C3.51562 426.055 1.99219 425.188 1.99219 423.453C1.99219 422.094 2.83594 421.414 4.52344 421.414L7.96875 421.766C10.7812 421.766 12.6562 420.195 13.5938 417.055C14.4375 414.383 14.8594 409.602 14.8594 402.711V353.211C14.8594 346.273 14.5312 341.773 13.875 339.711C13.2188 337.602 12.4219 336.172 11.4844 335.422C10.5938 334.625 9.42188 334.227 7.96875 334.227L4.52344 334.578C2.83594 334.578 1.99219 333.875 1.99219 332.469C1.99219 330.641 3.51562 329.727 6.5625 329.727L15.7734 330.781C17.7422 330.781 19.5 330.641 21.0469 330.359L85.8047 405.664V353.07C85.8047 346.227 85.4297 341.727 84.6797 339.57C83.9766 337.414 83.1562 335.961 82.2188 335.211C81.2812 334.414 80.0625 334.016 78.5625 334.016L75.1172 334.297C73.4297 334.297 72.5859 333.617 72.5859 332.258C72.5859 330.523 74.1094 329.656 77.1562 329.656C78.3281 329.656 79.8984 329.82 81.8672 330.148C84.3516 330.57 86.6016 330.781 88.6172 330.781C90.6328 330.781 92.6016 330.594 94.5234 330.219C96.4453 329.844 98.6953 329.656 101.273 329.656C103.852 329.656 105.141 330.523 105.141 332.258C105.141 333.617 104.297 334.297 102.609 334.297L99.1641 334.016C96.3047 334.016 94.4062 335.586 93.4688 338.727C92.6719 341.211 92.2734 345.992 92.2734 353.07V424.086C92.2734 425.68 92.1328 426.734 91.8516 427.25C91.5703 427.766 91.125 428.023 90.5156 428.023C89.6719 428.023 88.3359 427.039 86.5078 425.07L21.6797 349.977V402.711C21.6797 409.789 21.9844 414.359 22.5938 416.422C23.25 418.438 24.0234 419.844 24.9141 420.641C25.8516 421.391 27.0703 421.766 28.5703 421.766L31.9453 421.414C33.6328 421.414 34.4766 422.094 34.4766 423.453C34.4766 425.188 33.1172 426.055 30.3984 426.055C27.7266 426.055 25.3359 425.867 23.2266 425.492C21.1641 425.164 19.1484 425 17.1797 425C15.2109 425 13.2656 425.164 11.3438 425.492C9.46875 425.867 7.875 426.055 6.5625 426.055ZM120.609 417.125C117.891 414.078 115.781 410.492 114.281 406.367C112.828 402.242 112.102 397.672 112.102 392.656C112.102 387.594 112.969 382.953 114.703 378.734C116.438 374.516 118.828 370.906 121.875 367.906C128.203 361.672 136.008 358.555 145.289 358.555C152.977 358.555 159.188 361.086 163.922 366.148C168.422 371.023 170.672 377.047 170.672 384.219C170.672 386.562 170.344 388.18 169.688 389.07C169.078 389.914 168.305 390.43 167.367 390.617C166.43 390.758 165.141 390.898 163.5 391.039C161.859 391.133 159.867 391.25 157.523 391.391C155.18 391.531 152.555 391.672 149.648 391.812C146.789 391.953 143.859 392.117 140.859 392.305C133.969 392.727 128.438 393.148 124.266 393.57C125.297 406.18 130.125 414.359 138.75 418.109C141.562 419.328 144.562 419.938 147.75 419.938C154.5 419.938 159.844 417.969 163.781 414.031C165.469 412.344 166.758 411.5 167.648 411.5C169.336 411.5 170.18 412.508 170.18 414.523C170.18 415.555 169.477 416.797 168.07 418.25C166.664 419.703 164.648 421.203 162.023 422.75C157.383 425.422 151.969 426.758 145.781 426.758C139.594 426.758 134.531 425.914 130.594 424.227C126.703 422.492 123.375 420.125 120.609 417.125ZM124.125 388.367C146.109 387.242 157.688 386.047 158.859 384.781C159.281 384.312 159.492 382.93 159.492 380.633C159.492 378.336 159.047 376.109 158.156 373.953C157.266 371.75 156.07 369.875 154.57 368.328C151.477 365.188 147.633 363.617 143.039 363.617C137.836 363.617 133.453 365.797 129.891 370.156C126.141 374.703 124.219 380.773 124.125 388.367ZM282.469 359.328C284.391 359.328 285.352 359.914 285.352 361.086C285.352 362.07 284.461 362.891 282.68 363.547C280.898 364.156 279.586 364.742 278.742 365.305C277.945 365.867 277.172 366.688 276.422 367.766C275.203 369.5 273.492 373.016 271.289 378.312L251.391 424.719C250.828 426.078 250.219 426.758 249.562 426.758C248.578 426.758 247.805 426.078 247.242 424.719L228.188 380.492L209.906 424.719C209.344 426.078 208.734 426.758 208.078 426.758C207.094 426.758 206.32 426.078 205.758 424.719L184.242 372.828C183.023 369.641 182.039 367.602 181.289 366.711C180.023 365.164 178.359 364.156 176.297 363.688C174.281 363.172 173.273 362.281 173.273 361.016C173.273 360.594 173.531 360.219 174.047 359.891C174.516 359.516 175.219 359.328 176.156 359.328L187.055 360.102C189.867 360.102 191.953 360.008 193.312 359.82C195.703 359.492 197.672 359.328 199.219 359.328C202.406 359.328 204 360.008 204 361.367C204 362.773 202.125 363.57 198.375 363.758C196.078 363.852 194.836 364.484 194.648 365.656C194.602 365.984 194.578 366.383 194.578 366.852C194.578 367.93 195.07 369.805 196.055 372.477L210.68 407.703L224.812 372.758L223.266 369.102C222.141 366.477 220.969 364.836 219.75 364.18C219.281 363.945 218.742 363.711 218.133 363.477C216.352 362.82 215.461 361.977 215.461 360.945C215.461 359.867 216.516 359.328 218.625 359.328L227.625 360.102C230.531 360.102 232.711 360.008 234.164 359.82C236.695 359.492 239.156 359.328 241.547 359.328C243.984 359.328 245.203 360.008 245.203 361.367C245.203 362.773 243.328 363.57 239.578 363.758C236.672 363.898 235.219 364.859 235.219 366.641C235.219 368.469 236.156 371.469 238.031 375.641L252.375 408.547L262.148 384.219C265.242 376.438 266.883 371.773 267.07 370.227C267.258 368.633 267.352 367.484 267.352 366.781C267.352 365 266.133 364.016 263.695 363.828C261.258 363.594 259.617 363.312 258.773 362.984C257.977 362.656 257.578 362.117 257.578 361.367C257.578 360.008 259.172 359.328 262.359 359.328L274.312 360.031L282.469 359.328ZM294.211 421.203C292.055 419.656 290.367 417.969 289.148 416.141C287.93 414.266 287.32 412.812 287.32 411.781C287.32 410.703 287.461 409.906 287.742 409.391C288.07 408.828 288.492 408.312 289.008 407.844C290.227 406.672 291.398 406.086 292.523 406.086C293.695 406.086 294.586 406.367 295.195 406.93C295.805 407.445 296.367 408.5 296.883 410.094C297.445 411.641 298.219 413.141 299.203 414.594C300.234 416.047 301.453 417.312 302.859 418.391C305.906 420.688 309.633 421.836 314.039 421.836C317.93 421.836 321.234 420.875 323.953 418.953C326.812 416.984 328.242 414.523 328.242 411.57C328.242 408.57 326.953 405.945 324.375 403.695C321.609 401.305 317.508 399.031 312.07 396.875C306.633 394.672 302.766 392.82 300.469 391.32C298.172 389.82 296.297 388.227 294.844 386.539C292.078 383.305 290.695 379.602 290.695 375.43C290.695 370.648 292.852 366.664 297.164 363.477C301.523 360.289 306.984 358.695 313.547 358.695C319.219 358.695 324 359.891 327.891 362.281C331.266 364.391 332.953 366.617 332.953 368.961C332.953 370.18 332.32 371.234 331.055 372.125C329.836 372.969 328.664 373.391 327.539 373.391C326.461 373.391 325.617 373.18 325.008 372.758C324.398 372.289 323.484 371.117 322.266 369.242C319.875 365.539 316.242 363.688 311.367 363.688C305.883 363.688 302.25 365.328 300.469 368.609C299.953 369.547 299.695 370.555 299.695 371.633C299.695 372.711 299.906 373.766 300.328 374.797C300.797 375.781 301.641 376.812 302.859 377.891C305.438 380.047 310.172 382.555 317.062 385.414C330.562 390.992 337.312 398.141 337.312 406.859C337.312 412.719 334.945 417.5 330.211 421.203C325.43 424.906 319.289 426.758 311.789 426.758C305.133 426.758 299.273 424.906 294.211 421.203Z" fill="black"/>
</svg>
